<svg width="166" height="143" viewBox="0 0 166 143" fill="none" xmlns="http://www.w3.org/2000/svg">
<mask id="path-1-outside-1_290_214" maskUnits="userSpaceOnUse" x="0" y="0" width="166" height="143" fill="black">
<rect fill="white" width="166" height="143"/>
<path fill-rule="evenodd" clip-rule="evenodd" d="M162.889 3.18731C162.996 3.31977 163.027 3.49706 162.974 3.65811C162.801 4.17728 162.636 5.14088 162.488 6.40622C162.343 7.65715 162.218 9.16142 162.113 10.7352C161.903 13.8822 161.776 17.2885 161.723 19.4635C161.723 19.4704 161.723 19.4774 161.722 19.4843L161.721 19.5008L161.719 19.516C160.931 25.5549 157.694 29.3994 153.977 31.7345C150.277 34.0587 146.101 34.8908 143.369 34.9454C143.093 34.9509 142.865 34.7316 142.859 34.4555C142.854 34.1794 143.073 33.9511 143.349 33.9456C145.934 33.8939 149.925 33.0989 153.445 30.8877C156.942 28.6906 159.975 25.0987 160.724 19.4126C160.778 17.2265 160.905 13.8205 161.115 10.6688C161.22 9.08691 161.347 7.56442 161.495 6.2904C161.595 5.4383 161.706 4.67776 161.832 4.08002C157.758 4.59834 151.97 6.14783 147.02 9.22063C141.781 12.4731 137.531 17.3956 137.159 24.5815C137.145 24.8573 136.91 25.0693 136.634 25.055C136.359 25.0408 136.147 24.8057 136.161 24.5299C136.555 16.913 141.077 11.733 146.493 8.37104C151.899 5.01466 158.245 3.43375 162.448 3.00261C162.617 2.98529 162.783 3.05484 162.889 3.18731ZM157.716 10.7744C157.927 10.9522 157.954 11.2677 157.776 11.4789C157.509 11.7967 157.222 12.1386 156.918 12.4999L156.918 12.5001L156.917 12.5012C153.94 16.0454 149.391 21.4609 146.256 24.4667C145.66 25.0378 145.108 25.5293 144.622 25.9077C144.237 26.2071 143.774 26.7461 143.26 27.4724C144.356 27.0622 145.713 26.4295 147.092 25.5535C149.108 24.2734 151.144 22.4921 152.495 20.1581C152.634 19.9191 152.939 19.8375 153.178 19.9759C153.417 20.1142 153.499 20.4201 153.361 20.6591C151.905 23.1743 149.732 25.0618 147.628 26.3977C145.629 27.6672 143.666 28.4552 142.379 28.8154C140.322 32.1562 137.999 37.2163 136.801 40.0632C136.694 40.3177 136.4 40.4372 136.146 40.33C135.891 40.2229 135.772 39.9297 135.879 39.6752C137.088 36.8026 139.453 31.6484 141.559 28.2397C141.571 27.3067 141.662 25.8864 141.899 24.4657C142.144 22.9922 142.561 21.4303 143.27 20.437C143.43 20.2123 143.743 20.1603 143.967 20.3207C144.192 20.4812 144.244 20.7935 144.084 21.0182C143.517 21.8115 143.128 23.174 142.885 24.6302C142.771 25.313 142.692 25.997 142.641 26.6215C143.117 25.9755 143.579 25.4516 144.008 25.1184C144.422 24.7961 144.901 24.3744 145.431 23.872C145.556 22.6858 145.88 20.9115 146.474 19.1912C147.094 17.398 148.04 15.5632 149.451 14.5756C149.677 14.4172 149.989 14.4722 150.147 14.6984C150.306 14.9246 150.251 15.2364 150.025 15.3948C148.883 16.1937 148.023 17.7713 147.419 19.5178C147.038 20.6199 146.774 21.7493 146.605 22.7121C149.608 19.6474 153.489 15.0266 156.155 11.8536L156.172 11.8337C156.468 11.4814 156.749 11.147 157.011 10.8348C157.189 10.6236 157.505 10.5965 157.716 10.7744ZM96.6733 87.9293C96.6733 87.9293 101.699 104.881 102.975 106.476C103.996 107.753 107.442 107.753 109.356 106.476C110.345 105.816 110.557 105.472 110.879 104.948C111.045 104.678 111.241 104.359 111.589 103.924C112.099 103.286 113.12 102.648 114.141 103.924C115.948 105.732 120.074 108.773 122.116 106.476C124.157 104.179 125.731 94.0343 126.263 89.2489C127.007 85.6333 126.921 79.3591 122.435 84.1445C119.008 87.7998 118.397 94.061 118.299 96.8145C118.27 97.6406 117.656 98.3892 117.012 97.8713C116.343 97.3335 115.567 96.0487 115.098 93.0773C114.141 87.0157 109.356 87.0157 108.399 93.0773C107.967 95.8103 107.821 97.2886 107.749 98.0105C107.707 98.4339 107.691 98.5971 107.658 98.6005C107.638 98.6027 107.611 98.5421 107.567 98.4435L107.567 98.4434L107.567 98.4433C107.535 98.3726 107.495 98.2824 107.442 98.1817C105.39 94.2835 104.394 91.7048 103.351 89.0031C102.771 87.5036 102.178 85.9663 101.381 84.1445C99.966 80.9106 94.4406 80.2727 96.6733 87.9293ZM75.7305 103.56V85.3754C75.7305 83.4613 77.3255 82.5042 78.9205 82.5042H90.0855C93.5945 82.5042 93.5945 87.2896 90.0855 87.2896H82.4295C80.1965 87.2896 80.1965 92.075 82.4295 92.075H90.0855C92.3185 92.075 92.3185 96.8604 90.0855 96.8604H82.4295C80.8345 96.8604 80.8345 101.646 82.4295 101.646H91.0425C92.9565 101.646 92.6375 106.75 91.0425 106.75H80.1965C76.6237 106.75 75.7305 104.623 75.7305 103.56ZM65.8438 84.7366V105.154C65.8438 108.344 70.9478 108.663 70.9478 105.154V84.7366C70.9478 80.9084 65.8438 80.9084 65.8438 84.7366ZM62.544 86.1487C63.3858 80.5914 59.4617 80.9083 58.078 83.2774C55.8849 87.0325 53.4092 95.0546 52.4028 98.316C52.2253 98.8911 52.0935 99.3182 52.017 99.5477C51.5066 101.079 50.9536 100.186 50.741 99.5477C50.741 99.5477 48.5091 87.1057 45.9559 83.2774C42.7671 79.7681 39.8149 83.5964 40.8519 86.1487C43.4039 92.4228 48.7632 105.418 49.784 107.204C50.8048 108.991 52.336 107.949 52.974 107.204C56.2703 102.525 61.6947 91.7552 62.544 86.1487ZM33.625 37.3166C44.152 26.2571 72.2879 7.4558 100.615 20.7273C98.0632 19.9828 91.3642 19.3234 84.9842 22.6413C92.9592 23.2793 110.696 26.1506 115.289 31.255L107.314 5.09486C106.783 7.96609 107.123 16.516 108.909 20.0891C95.9366 5.52033 49.5751 5.09481 33.625 37.3166ZM72.2249 139.405C37.7024 135.123 22.6734 102.504 19.2707 88.0418C20.1714 91.8701 20.2277 102.717 13.8477 109.417C15.4427 102.398 17.6757 88.9989 17.6757 81.9803C17.6757 78.79 19.9667 80.0661 21.8227 82.6183C22.3805 83.3854 23.7846 85.0684 25.5214 87.1502C28.8409 91.129 33.3757 96.5645 35.5397 99.8457C33.7533 98.8249 27.5647 94.635 25.0127 92.5082C25.0127 92.5082 39.8143 129.005 72.2249 132.067C112.738 135.896 130.705 115.478 136.663 99.8457C142.986 83.2567 140.684 70.1101 138.484 57.5386C137.765 53.4284 137.056 49.3797 136.663 45.2923C166.968 118.349 110.399 144.403 72.2249 139.405ZM18.6511 36.9977C10.3048 36.9977 3.85543 45.1705 3.15998 50.0778C2.8435 52.311 2.96789 56.4197 3.79227 59.3295C5.69033 66.0291 15.4896 70.1764 20.8641 70.1764C26.2385 70.1764 31.2968 67.3052 32.5614 63.7959C33.826 60.2866 29.0838 58.3725 27.5031 59.3295C25.9224 60.2866 20.5479 62.2008 16.438 59.9676C13.1501 58.181 15.1747 56.7773 16.438 56.1393C17.7014 55.5012 23.2332 55.5012 28.4515 55.5012C33.6698 55.5012 33.9371 49.6524 33.1994 47.8446C32.0402 44.4417 26.9973 36.9977 18.6511 36.9977ZM15.7605 50.3968H21.7965C22.909 50.3968 23.6795 49.4267 23.0537 48.4985C22.4855 47.6558 21.7304 46.8709 21.1557 46.4665C20.1395 45.7514 18.1072 45.7521 17.091 46.4665C16.3828 46.9645 15.4003 48.041 14.8317 49.0913C14.4761 49.7481 15.0189 50.3968 15.7605 50.3968ZM52.1526 59.454C43.873 59.454 46.9372 47.9893 52.1526 47.9893C57.3854 47.9893 58.8343 46.3004 59.0962 41.797C59.1663 40.5911 58.7394 39.3751 57.7857 38.6338C50.3973 32.8904 37.2405 40.6137 36.2669 51.2913C35.0902 64.197 45.5152 74.314 55.6417 70.207C57.2157 69.5686 58.055 67.9134 58.0859 66.2152L58.0931 65.8248C58.2031 59.9333 58.2121 59.454 52.1526 59.454ZM92.3207 54.9254C92.3207 66.5957 82.033 69.9554 76.8891 70.1764C69.6658 70.1764 60.1442 62.8824 61.1292 51.2784C62.1142 39.6743 74.5908 36.6904 78.2025 37.022C81.8141 37.3535 92.3207 40.3374 92.3207 54.9254ZM73.4579 57.2378C74.5261 58.505 75.5767 58.9158 77.1002 58.871C80.4396 58.7728 83.2345 53.7634 81.5831 50.3782C80.1509 47.4424 76.6235 46.7302 74.2984 48.745C72 50.7366 71.4506 54.8566 73.4579 57.2378ZM126.465 16.8247C126.682 16.6541 126.996 16.6918 127.167 16.909C128.35 18.4154 130.02 20.9399 131.171 23.6217C131.194 23.3488 131.221 23.0723 131.253 22.7976C131.326 22.1642 131.425 21.5321 131.556 20.9711C131.686 20.4188 131.855 19.8987 132.087 19.5128C132.229 19.276 132.536 19.1993 132.773 19.3413C133.009 19.4834 133.086 19.7905 132.944 20.0273C132.793 20.2795 132.652 20.6798 132.53 21.1993C132.41 21.7102 132.317 22.3015 132.247 22.9122C132.11 24.0997 132.061 25.3292 132.059 26.1214C132.14 26.4178 132.211 26.7138 132.27 27.008C132.589 28.5749 132.596 30.131 132.017 31.4554C130.29 35.4015 131.345 37.9077 131.935 38.5824C132.117 38.7902 132.096 39.1061 131.888 39.2879C131.68 39.4698 131.364 39.4487 131.182 39.2409C130.284 38.2141 129.254 35.2756 131.1 31.0546C131.561 30.0027 131.588 28.6936 131.298 27.2465C130.938 26.318 129.557 24.5062 126.815 24.7347C126.54 24.7576 126.298 24.5532 126.275 24.278C126.252 24.0028 126.457 23.7611 126.732 23.7382C128.392 23.5998 129.653 24.0872 130.556 24.7612C129.465 21.9278 127.647 19.1385 126.38 17.5268C126.21 17.3096 126.247 16.9953 126.465 16.8247ZM119.767 7.58967C119.634 7.47319 119.513 7.37427 119.408 7.30273C119.356 7.26717 119.295 7.22964 119.23 7.20009C119.175 7.1751 119.062 7.12993 118.922 7.13902C118.739 7.15093 118.566 7.25336 118.474 7.42929C118.404 7.56223 118.404 7.69156 118.407 7.75147C118.413 7.88103 118.453 8.02071 118.49 8.13311C118.563 8.36087 118.692 8.68138 118.845 9.06275L118.845 9.06309L118.874 9.13415C119.043 9.55595 119.249 10.0698 119.47 10.6721C120.355 13.0794 121.49 16.8993 121.49 21.6842C121.49 24.0617 122.667 26.7156 124.136 28.7556C124.875 29.7817 125.704 30.6763 126.527 31.3198C127.334 31.9509 128.202 32.393 129.008 32.393C129.284 32.393 129.508 32.1691 129.508 31.893C129.508 31.6168 129.284 31.393 129.008 31.393C128.538 31.393 127.891 31.1172 127.143 30.5321C126.41 29.9593 125.644 29.1391 124.948 28.1713C123.545 26.2235 122.49 23.7729 122.49 21.6842C122.49 16.7405 121.317 12.7983 120.409 10.3272C120.214 9.79814 120.032 9.33644 119.877 8.94894C122.115 10.5581 125.548 11.8832 128.491 12.8286C130.159 13.3642 131.695 13.7856 132.814 14.0731C133.374 14.217 133.83 14.3274 134.147 14.402C134.305 14.4393 134.429 14.4677 134.513 14.4868L134.609 14.5085L134.634 14.514L134.641 14.5154L134.642 14.5158L134.643 14.5159C134.643 14.516 134.643 14.516 134.75 14.0275L134.643 14.5161L134.651 14.5176L134.651 14.5177L134.651 14.5177L134.652 14.5178L134.652 14.5178L134.652 14.5179L134.661 14.5198C134.665 14.5207 134.67 14.5219 134.677 14.5233C134.684 14.525 134.693 14.527 134.703 14.5294C134.74 14.5383 134.796 14.5526 134.865 14.5725C135.003 14.6127 135.189 14.6748 135.38 14.7619C135.796 14.9507 136.1 15.1938 136.19 15.4617C136.277 15.7237 136.56 15.8653 136.822 15.778C137.084 15.6907 137.226 15.4075 137.138 15.1455C136.909 14.4564 136.256 14.0614 135.794 13.8515C135.547 13.7392 135.314 13.6617 135.143 13.6122C135.058 13.5873 134.986 13.5691 134.935 13.5569C134.91 13.5508 134.889 13.5461 134.875 13.5429L134.857 13.5391L134.854 13.5385L134.85 13.5375L134.826 13.5324L134.734 13.5116C134.652 13.4931 134.532 13.4653 134.376 13.4287C134.065 13.3554 133.616 13.2466 133.063 13.1046C131.957 12.8205 130.441 12.4044 128.797 11.8765C125.48 10.8113 121.747 9.32111 119.767 7.58967Z"/>
</mask>
<path fill-rule="evenodd" clip-rule="evenodd" d="M162.889 3.18731C162.996 3.31977 163.027 3.49706 162.974 3.65811C162.801 4.17728 162.636 5.14088 162.488 6.40622C162.343 7.65715 162.218 9.16142 162.113 10.7352C161.903 13.8822 161.776 17.2885 161.723 19.4635C161.723 19.4704 161.723 19.4774 161.722 19.4843L161.721 19.5008L161.719 19.516C160.931 25.5549 157.694 29.3994 153.977 31.7345C150.277 34.0587 146.101 34.8908 143.369 34.9454C143.093 34.9509 142.865 34.7316 142.859 34.4555C142.854 34.1794 143.073 33.9511 143.349 33.9456C145.934 33.8939 149.925 33.0989 153.445 30.8877C156.942 28.6906 159.975 25.0987 160.724 19.4126C160.778 17.2265 160.905 13.8205 161.115 10.6688C161.22 9.08691 161.347 7.56442 161.495 6.2904C161.595 5.4383 161.706 4.67776 161.832 4.08002C157.758 4.59834 151.97 6.14783 147.02 9.22063C141.781 12.4731 137.531 17.3956 137.159 24.5815C137.145 24.8573 136.91 25.0693 136.634 25.055C136.359 25.0408 136.147 24.8057 136.161 24.5299C136.555 16.913 141.077 11.733 146.493 8.37104C151.899 5.01466 158.245 3.43375 162.448 3.00261C162.617 2.98529 162.783 3.05484 162.889 3.18731ZM157.716 10.7744C157.927 10.9522 157.954 11.2677 157.776 11.4789C157.509 11.7967 157.222 12.1386 156.918 12.4999L156.918 12.5001L156.917 12.5012C153.94 16.0454 149.391 21.4609 146.256 24.4667C145.66 25.0378 145.108 25.5293 144.622 25.9077C144.237 26.2071 143.774 26.7461 143.26 27.4724C144.356 27.0622 145.713 26.4295 147.092 25.5535C149.108 24.2734 151.144 22.4921 152.495 20.1581C152.634 19.9191 152.939 19.8375 153.178 19.9759C153.417 20.1142 153.499 20.4201 153.361 20.6591C151.905 23.1743 149.732 25.0618 147.628 26.3977C145.629 27.6672 143.666 28.4552 142.379 28.8154C140.322 32.1562 137.999 37.2163 136.801 40.0632C136.694 40.3177 136.4 40.4372 136.146 40.33C135.891 40.2229 135.772 39.9297 135.879 39.6752C137.088 36.8026 139.453 31.6484 141.559 28.2397C141.571 27.3067 141.662 25.8864 141.899 24.4657C142.144 22.9922 142.561 21.4303 143.27 20.437C143.43 20.2123 143.743 20.1603 143.967 20.3207C144.192 20.4812 144.244 20.7935 144.084 21.0182C143.517 21.8115 143.128 23.174 142.885 24.6302C142.771 25.313 142.692 25.997 142.641 26.6215C143.117 25.9755 143.579 25.4516 144.008 25.1184C144.422 24.7961 144.901 24.3744 145.431 23.872C145.556 22.6858 145.88 20.9115 146.474 19.1912C147.094 17.398 148.04 15.5632 149.451 14.5756C149.677 14.4172 149.989 14.4722 150.147 14.6984C150.306 14.9246 150.251 15.2364 150.025 15.3948C148.883 16.1937 148.023 17.7713 147.419 19.5178C147.038 20.6199 146.774 21.7493 146.605 22.7121C149.608 19.6474 153.489 15.0266 156.155 11.8536L156.172 11.8337C156.468 11.4814 156.749 11.147 157.011 10.8348C157.189 10.6236 157.505 10.5965 157.716 10.7744ZM96.6733 87.9293C96.6733 87.9293 101.699 104.881 102.975 106.476C103.996 107.753 107.442 107.753 109.356 106.476C110.345 105.816 110.557 105.472 110.879 104.948C111.045 104.678 111.241 104.359 111.589 103.924C112.099 103.286 113.12 102.648 114.141 103.924C115.948 105.732 120.074 108.773 122.116 106.476C124.157 104.179 125.731 94.0343 126.263 89.2489C127.007 85.6333 126.921 79.3591 122.435 84.1445C119.008 87.7998 118.397 94.061 118.299 96.8145C118.27 97.6406 117.656 98.3892 117.012 97.8713C116.343 97.3335 115.567 96.0487 115.098 93.0773C114.141 87.0157 109.356 87.0157 108.399 93.0773C107.967 95.8103 107.821 97.2886 107.749 98.0105C107.707 98.4339 107.691 98.5971 107.658 98.6005C107.638 98.6027 107.611 98.5421 107.567 98.4435L107.567 98.4434L107.567 98.4433C107.535 98.3726 107.495 98.2824 107.442 98.1817C105.39 94.2835 104.394 91.7048 103.351 89.0031C102.771 87.5036 102.178 85.9663 101.381 84.1445C99.966 80.9106 94.4406 80.2727 96.6733 87.9293ZM75.7305 103.56V85.3754C75.7305 83.4613 77.3255 82.5042 78.9205 82.5042H90.0855C93.5945 82.5042 93.5945 87.2896 90.0855 87.2896H82.4295C80.1965 87.2896 80.1965 92.075 82.4295 92.075H90.0855C92.3185 92.075 92.3185 96.8604 90.0855 96.8604H82.4295C80.8345 96.8604 80.8345 101.646 82.4295 101.646H91.0425C92.9565 101.646 92.6375 106.75 91.0425 106.75H80.1965C76.6237 106.75 75.7305 104.623 75.7305 103.56ZM65.8438 84.7366V105.154C65.8438 108.344 70.9478 108.663 70.9478 105.154V84.7366C70.9478 80.9084 65.8438 80.9084 65.8438 84.7366ZM62.544 86.1487C63.3858 80.5914 59.4617 80.9083 58.078 83.2774C55.8849 87.0325 53.4092 95.0546 52.4028 98.316C52.2253 98.8911 52.0935 99.3182 52.017 99.5477C51.5066 101.079 50.9536 100.186 50.741 99.5477C50.741 99.5477 48.5091 87.1057 45.9559 83.2774C42.7671 79.7681 39.8149 83.5964 40.8519 86.1487C43.4039 92.4228 48.7632 105.418 49.784 107.204C50.8048 108.991 52.336 107.949 52.974 107.204C56.2703 102.525 61.6947 91.7552 62.544 86.1487ZM33.625 37.3166C44.152 26.2571 72.2879 7.4558 100.615 20.7273C98.0632 19.9828 91.3642 19.3234 84.9842 22.6413C92.9592 23.2793 110.696 26.1506 115.289 31.255L107.314 5.09486C106.783 7.96609 107.123 16.516 108.909 20.0891C95.9366 5.52033 49.5751 5.09481 33.625 37.3166ZM72.2249 139.405C37.7024 135.123 22.6734 102.504 19.2707 88.0418C20.1714 91.8701 20.2277 102.717 13.8477 109.417C15.4427 102.398 17.6757 88.9989 17.6757 81.9803C17.6757 78.79 19.9667 80.0661 21.8227 82.6183C22.3805 83.3854 23.7846 85.0684 25.5214 87.1502C28.8409 91.129 33.3757 96.5645 35.5397 99.8457C33.7533 98.8249 27.5647 94.635 25.0127 92.5082C25.0127 92.5082 39.8143 129.005 72.2249 132.067C112.738 135.896 130.705 115.478 136.663 99.8457C142.986 83.2567 140.684 70.1101 138.484 57.5386C137.765 53.4284 137.056 49.3797 136.663 45.2923C166.968 118.349 110.399 144.403 72.2249 139.405ZM18.6511 36.9977C10.3048 36.9977 3.85543 45.1705 3.15998 50.0778C2.8435 52.311 2.96789 56.4197 3.79227 59.3295C5.69033 66.0291 15.4896 70.1764 20.8641 70.1764C26.2385 70.1764 31.2968 67.3052 32.5614 63.7959C33.826 60.2866 29.0838 58.3725 27.5031 59.3295C25.9224 60.2866 20.5479 62.2008 16.438 59.9676C13.1501 58.181 15.1747 56.7773 16.438 56.1393C17.7014 55.5012 23.2332 55.5012 28.4515 55.5012C33.6698 55.5012 33.9371 49.6524 33.1994 47.8446C32.0402 44.4417 26.9973 36.9977 18.6511 36.9977ZM15.7605 50.3968H21.7965C22.909 50.3968 23.6795 49.4267 23.0537 48.4985C22.4855 47.6558 21.7304 46.8709 21.1557 46.4665C20.1395 45.7514 18.1072 45.7521 17.091 46.4665C16.3828 46.9645 15.4003 48.041 14.8317 49.0913C14.4761 49.7481 15.0189 50.3968 15.7605 50.3968ZM52.1526 59.454C43.873 59.454 46.9372 47.9893 52.1526 47.9893C57.3854 47.9893 58.8343 46.3004 59.0962 41.797C59.1663 40.5911 58.7394 39.3751 57.7857 38.6338C50.3973 32.8904 37.2405 40.6137 36.2669 51.2913C35.0902 64.197 45.5152 74.314 55.6417 70.207C57.2157 69.5686 58.055 67.9134 58.0859 66.2152L58.0931 65.8248C58.2031 59.9333 58.2121 59.454 52.1526 59.454ZM92.3207 54.9254C92.3207 66.5957 82.033 69.9554 76.8891 70.1764C69.6658 70.1764 60.1442 62.8824 61.1292 51.2784C62.1142 39.6743 74.5908 36.6904 78.2025 37.022C81.8141 37.3535 92.3207 40.3374 92.3207 54.9254ZM73.4579 57.2378C74.5261 58.505 75.5767 58.9158 77.1002 58.871C80.4396 58.7728 83.2345 53.7634 81.5831 50.3782C80.1509 47.4424 76.6235 46.7302 74.2984 48.745C72 50.7366 71.4506 54.8566 73.4579 57.2378ZM126.465 16.8247C126.682 16.6541 126.996 16.6918 127.167 16.909C128.35 18.4154 130.02 20.9399 131.171 23.6217C131.194 23.3488 131.221 23.0723 131.253 22.7976C131.326 22.1642 131.425 21.5321 131.556 20.9711C131.686 20.4188 131.855 19.8987 132.087 19.5128C132.229 19.276 132.536 19.1993 132.773 19.3413C133.009 19.4834 133.086 19.7905 132.944 20.0273C132.793 20.2795 132.652 20.6798 132.53 21.1993C132.41 21.7102 132.317 22.3015 132.247 22.9122C132.11 24.0997 132.061 25.3292 132.059 26.1214C132.14 26.4178 132.211 26.7138 132.27 27.008C132.589 28.5749 132.596 30.131 132.017 31.4554C130.29 35.4015 131.345 37.9077 131.935 38.5824C132.117 38.7902 132.096 39.1061 131.888 39.2879C131.68 39.4698 131.364 39.4487 131.182 39.2409C130.284 38.2141 129.254 35.2756 131.1 31.0546C131.561 30.0027 131.588 28.6936 131.298 27.2465C130.938 26.318 129.557 24.5062 126.815 24.7347C126.54 24.7576 126.298 24.5532 126.275 24.278C126.252 24.0028 126.457 23.7611 126.732 23.7382C128.392 23.5998 129.653 24.0872 130.556 24.7612C129.465 21.9278 127.647 19.1385 126.38 17.5268C126.21 17.3096 126.247 16.9953 126.465 16.8247ZM119.767 7.58967C119.634 7.47319 119.513 7.37427 119.408 7.30273C119.356 7.26717 119.295 7.22964 119.23 7.20009C119.175 7.1751 119.062 7.12993 118.922 7.13902C118.739 7.15093 118.566 7.25336 118.474 7.42929C118.404 7.56223 118.404 7.69156 118.407 7.75147C118.413 7.88103 118.453 8.02071 118.49 8.13311C118.563 8.36087 118.692 8.68138 118.845 9.06275L118.845 9.06309L118.874 9.13415C119.043 9.55595 119.249 10.0698 119.47 10.6721C120.355 13.0794 121.49 16.8993 121.49 21.6842C121.49 24.0617 122.667 26.7156 124.136 28.7556C124.875 29.7817 125.704 30.6763 126.527 31.3198C127.334 31.9509 128.202 32.393 129.008 32.393C129.284 32.393 129.508 32.1691 129.508 31.893C129.508 31.6168 129.284 31.393 129.008 31.393C128.538 31.393 127.891 31.1172 127.143 30.5321C126.41 29.9593 125.644 29.1391 124.948 28.1713C123.545 26.2235 122.49 23.7729 122.49 21.6842C122.49 16.7405 121.317 12.7983 120.409 10.3272C120.214 9.79814 120.032 9.33644 119.877 8.94894C122.115 10.5581 125.548 11.8832 128.491 12.8286C130.159 13.3642 131.695 13.7856 132.814 14.0731C133.374 14.217 133.83 14.3274 134.147 14.402C134.305 14.4393 134.429 14.4677 134.513 14.4868L134.609 14.5085L134.634 14.514L134.641 14.5154L134.642 14.5158L134.643 14.5159C134.643 14.516 134.643 14.516 134.75 14.0275L134.643 14.5161L134.651 14.5176L134.651 14.5177L134.651 14.5177L134.652 14.5178L134.652 14.5178L134.652 14.5179L134.661 14.5198C134.665 14.5207 134.67 14.5219 134.677 14.5233C134.684 14.525 134.693 14.527 134.703 14.5294C134.74 14.5383 134.796 14.5526 134.865 14.5725C135.003 14.6127 135.189 14.6748 135.38 14.7619C135.796 14.9507 136.1 15.1938 136.19 15.4617C136.277 15.7237 136.56 15.8653 136.822 15.778C137.084 15.6907 137.226 15.4075 137.138 15.1455C136.909 14.4564 136.256 14.0614 135.794 13.8515C135.547 13.7392 135.314 13.6617 135.143 13.6122C135.058 13.5873 134.986 13.5691 134.935 13.5569C134.91 13.5508 134.889 13.5461 134.875 13.5429L134.857 13.5391L134.854 13.5385L134.85 13.5375L134.826 13.5324L134.734 13.5116C134.652 13.4931 134.532 13.4653 134.376 13.4287C134.065 13.3554 133.616 13.2466 133.063 13.1046C131.957 12.8205 130.441 12.4044 128.797 11.8765C125.48 10.8113 121.747 9.32111 119.767 7.58967Z" fill="white"/>
<path d="M162.974 3.65811L160.128 2.70947L160.128 2.70953L162.974 3.65811ZM162.889 3.18731L160.549 5.06353V5.06353L162.889 3.18731ZM162.488 6.40622L159.509 6.05874V6.05877L162.488 6.40622ZM162.113 10.7352L159.12 10.536V10.536L162.113 10.7352ZM161.723 19.4635L158.724 19.3904L158.724 19.3912L161.723 19.4635ZM161.722 19.4843L164.712 19.7338C164.713 19.7164 164.715 19.6991 164.716 19.6817L161.722 19.4843ZM161.721 19.5008L164.701 19.8428C164.705 19.812 164.708 19.7811 164.71 19.7502L161.721 19.5008ZM161.719 19.516L164.694 19.904C164.696 19.8886 164.698 19.8733 164.699 19.858L161.719 19.516ZM153.977 31.7345L152.381 29.1941V29.1941L153.977 31.7345ZM143.369 34.9454L143.429 37.9448L143.369 34.9454ZM143.349 33.9456L143.289 30.9462H143.289L143.349 33.9456ZM153.445 30.8877L151.849 28.3473L151.849 28.3473L153.445 30.8877ZM160.724 19.4126L163.698 19.8046C163.712 19.6989 163.721 19.5927 163.723 19.4862L160.724 19.4126ZM161.115 10.6688L164.109 10.868V10.868L161.115 10.6688ZM161.495 6.2904L158.515 5.94292V5.94297L161.495 6.2904ZM161.832 4.08002L164.767 4.70149C164.969 3.75111 164.697 2.76212 164.039 2.04757C163.381 1.33303 162.418 0.981408 161.454 1.10401L161.832 4.08002ZM147.02 9.22063L148.603 11.7694V11.7694L147.02 9.22063ZM137.159 24.5815L134.163 24.4266V24.4267L137.159 24.5815ZM136.634 25.055L136.479 28.051L136.634 25.055ZM136.161 24.5299L139.157 24.6849L139.157 24.6848L136.161 24.5299ZM146.493 8.37104L148.075 10.9198V10.9198L146.493 8.37104ZM162.448 3.00261L162.754 5.98696L162.754 5.98696L162.448 3.00261ZM157.776 11.4789L155.482 9.54654L155.482 9.54658L157.776 11.4789ZM157.716 10.7744L155.784 13.0692V13.0692L157.716 10.7744ZM156.918 12.4999L154.621 10.5703C154.602 10.5933 154.583 10.6165 154.564 10.64L156.918 12.4999ZM156.918 12.5001L159.21 14.4355C159.231 14.4107 159.252 14.3855 159.272 14.36L156.918 12.5001ZM156.917 12.5012L154.625 10.5658L154.62 10.5716L156.917 12.5012ZM146.256 24.4667L144.18 22.3013L144.18 22.3013L146.256 24.4667ZM144.622 25.9077L146.464 28.2757L146.464 28.2757L144.622 25.9077ZM143.26 27.4724L140.812 25.7385C140.05 26.8135 140.079 28.2594 140.883 29.3031C141.687 30.3467 143.078 30.7438 144.311 30.2821L143.26 27.4724ZM147.092 25.5535L148.7 28.0861L147.092 25.5535ZM152.495 20.1581L149.899 18.655L149.899 18.6551L152.495 20.1581ZM153.361 20.6591L150.764 19.1561L150.764 19.1561L153.361 20.6591ZM147.628 26.3977L149.236 28.9303L149.236 28.9303L147.628 26.3977ZM142.379 28.8154L141.57 25.9265C140.843 26.1299 140.22 26.6 139.824 27.2428L142.379 28.8154ZM136.801 40.0632L139.566 41.2274L139.566 41.2273L136.801 40.0632ZM136.146 40.33L134.982 43.0949L134.982 43.0949L136.146 40.33ZM135.879 39.6752L133.114 38.5111L133.114 38.5111L135.879 39.6752ZM141.559 28.2397L144.111 29.8167C144.397 29.3539 144.552 28.8221 144.559 28.2782L141.559 28.2397ZM141.899 24.4657L138.939 23.9722V23.9722L141.899 24.4657ZM143.27 20.437L145.711 22.1807L145.711 22.1806L143.27 20.437ZM143.967 20.3207L142.224 22.762L142.224 22.762L143.967 20.3207ZM144.084 21.0182L141.643 19.2745L141.642 19.2746L144.084 21.0182ZM142.885 24.6302L139.926 24.1367V24.1367L142.885 24.6302ZM142.641 26.6215L139.651 26.3741C139.54 27.7109 140.331 28.9586 141.586 29.4301C142.842 29.9015 144.258 29.4821 145.055 28.4029L142.641 26.6215ZM144.008 25.1184L145.85 27.4864L145.85 27.4863L144.008 25.1184ZM145.431 23.872L147.495 26.0483C148.013 25.5568 148.339 24.8968 148.414 24.1868L145.431 23.872ZM146.474 19.1912L143.638 18.2117L143.638 18.2117L146.474 19.1912ZM149.451 14.5756L147.731 12.1179L147.731 12.1179L149.451 14.5756ZM150.147 14.6984L147.69 16.4188L147.69 16.4189L150.147 14.6984ZM150.025 15.3948L151.745 17.8524L151.745 17.8524L150.025 15.3948ZM147.419 19.5178L144.584 18.5382L144.584 18.5382L147.419 19.5178ZM146.605 22.7121L143.65 22.1946C143.423 23.4893 144.066 24.7808 145.235 25.381C146.404 25.9812 147.828 25.7504 148.748 24.8115L146.605 22.7121ZM156.155 11.8536L153.858 9.92338L153.858 9.92393L156.155 11.8536ZM156.172 11.8337L158.468 13.764L158.469 13.7634L156.172 11.8337ZM157.011 10.8348L154.717 8.90243L154.717 8.90249L157.011 10.8348ZM102.975 106.476L105.318 104.602L105.318 104.602L102.975 106.476ZM96.6733 87.9293L93.7932 88.7692L93.7971 88.7821L96.6733 87.9293ZM109.356 106.476L111.02 108.972L109.356 106.476ZM110.879 104.948L108.323 103.378L108.323 103.378L110.879 104.948ZM111.589 103.924L113.931 105.798L113.931 105.798L111.589 103.924ZM114.141 103.924L111.798 105.798C111.867 105.885 111.941 105.967 112.019 106.045L114.141 103.924ZM122.116 106.476L119.873 104.483L122.116 106.476ZM126.263 89.2489L123.324 88.644C123.306 88.7345 123.291 88.8258 123.281 88.9176L126.263 89.2489ZM122.435 84.1445L124.623 86.1962L122.435 84.1445ZM118.299 96.8145L115.301 96.7081V96.7081L118.299 96.8145ZM117.012 97.8713L118.891 95.5329L118.891 95.5329L117.012 97.8713ZM115.098 93.0773L112.134 93.5451V93.5451L115.098 93.0773ZM108.399 93.0773L111.362 93.5451V93.5451L108.399 93.0773ZM107.749 98.0105L104.764 97.715V97.715L107.749 98.0105ZM107.658 98.6005L107.969 101.584L107.97 101.584L107.658 98.6005ZM107.567 98.4435L110.305 97.2183C110.288 97.1791 110.269 97.1403 110.25 97.1018L107.567 98.4435ZM107.567 98.4434L104.721 99.3921C104.765 99.5267 104.82 99.6581 104.883 99.785L107.567 98.4434ZM107.567 98.4433L110.413 97.4946C110.381 97.4007 110.345 97.3084 110.305 97.218L107.567 98.4433ZM107.442 98.1817L110.096 96.7846V96.7846L107.442 98.1817ZM103.351 89.0031L100.552 90.084V90.084L103.351 89.0031ZM101.381 84.1445L98.632 85.3468L98.6321 85.3469L101.381 84.1445ZM58.078 83.2774L60.6685 84.7904L58.078 83.2774ZM62.544 86.1487L59.5778 85.6993L62.544 86.1487ZM52.4028 98.316L49.5361 97.4313V97.4314L52.4028 98.316ZM52.017 99.5477L54.863 100.496V100.496L52.017 99.5477ZM50.741 99.5477L47.7881 100.077C47.8136 100.219 47.8493 100.359 47.8949 100.496L50.741 99.5477ZM45.9559 83.2774L48.4518 81.6129C48.3689 81.4885 48.2767 81.3705 48.1762 81.2599L45.9559 83.2774ZM40.8519 86.1487L38.0726 87.278L38.073 87.279L40.8519 86.1487ZM49.784 107.204L47.1792 108.693H47.1792L49.784 107.204ZM52.974 107.204L55.2518 109.157C55.3136 109.085 55.3718 109.01 55.4265 108.932L52.974 107.204ZM100.615 20.7273L99.7751 23.6072C101.28 24.0461 102.868 23.253 103.422 21.7869C103.975 20.3207 103.307 18.6755 101.888 18.0106L100.615 20.7273ZM33.625 37.3166L30.9364 35.9857C30.2784 37.3149 30.6905 38.9254 31.9059 39.7752C33.1214 40.6251 34.7755 40.4592 35.798 39.385L33.625 37.3166ZM84.9842 22.6413L83.6 19.9797C82.4131 20.597 81.7783 21.9256 82.0439 23.2369C82.3095 24.5481 83.4113 25.525 84.7449 25.6317L84.9842 22.6413ZM115.289 31.255L113.059 33.2618C114 34.3072 115.541 34.5587 116.765 33.8668C117.99 33.175 118.569 31.7254 118.159 30.3802L115.289 31.255ZM107.314 5.09486L110.184 4.22004C109.781 2.8974 108.526 2.02168 107.145 2.09963C105.765 2.17758 104.616 3.18901 104.364 4.54863L107.314 5.09486ZM108.909 20.0891L106.669 22.0841C107.669 23.2076 109.347 23.4164 110.592 22.5726C111.837 21.7287 112.265 20.093 111.593 18.7475L108.909 20.0891ZM22.1909 87.3547C21.8115 85.7419 20.1964 84.7421 18.5836 85.1215C16.9708 85.501 15.971 87.116 16.3504 88.7289L22.1909 87.3547ZM72.2249 139.405L72.6143 136.43C72.6076 136.429 72.6009 136.429 72.5941 136.428L72.2249 139.405ZM13.8477 109.417L10.9222 108.752C10.6231 110.068 11.2401 111.422 12.4299 112.06C13.6197 112.698 15.0891 112.463 16.0202 111.485L13.8477 109.417ZM21.8227 82.6183L19.3964 84.3828L21.8227 82.6183ZM25.5214 87.1502L23.2178 89.072L25.5214 87.1502ZM35.5397 99.8457L34.0512 102.45C35.2568 103.139 36.7777 102.911 37.7277 101.898C38.6777 100.886 38.8086 99.3532 38.0441 98.1941L35.5397 99.8457ZM25.0127 92.5082L26.9333 90.2036C25.8762 89.3225 24.3551 89.2737 23.2437 90.0852C22.1322 90.8967 21.7154 92.3604 22.2326 93.6356L25.0127 92.5082ZM72.2249 132.067L71.9426 135.054L72.2249 132.067ZM136.663 99.8457L133.86 98.7773L136.663 99.8457ZM138.484 57.5386L141.439 57.0214V57.0214L138.484 57.5386ZM136.663 45.2923L139.434 44.1428C138.865 42.771 137.378 42.022 135.937 42.3816C134.496 42.7411 133.535 44.101 133.677 45.5794L136.663 45.2923ZM3.15998 50.0778L0.189664 49.6568L3.15998 50.0778ZM3.79227 59.3295L6.67867 58.5118L3.79227 59.3295ZM32.5614 63.7959L35.3837 64.8129L32.5614 63.7959ZM27.5031 59.3295L25.9493 56.7633H25.9493L27.5031 59.3295ZM16.438 59.9676L17.8704 57.3316L16.438 59.9676ZM16.438 56.1393L15.0856 53.4614H15.0856L16.438 56.1393ZM33.1994 47.8446L30.3596 48.812C30.3787 48.8679 30.3994 48.9233 30.4217 48.978L33.1994 47.8446ZM23.0537 48.4985L20.5663 50.1757L23.0537 48.4985ZM21.1557 46.4665L19.4292 48.9199L19.4292 48.9199L21.1557 46.4665ZM17.091 46.4665L18.8164 48.9207L18.8164 48.9207L17.091 46.4665ZM14.8317 49.0913L12.1935 47.663L12.1935 47.663L14.8317 49.0913ZM59.0962 41.797L62.0911 41.9712V41.9711L59.0962 41.797ZM57.7857 38.6338L59.6269 36.2652L59.6269 36.2652L57.7857 38.6338ZM36.2669 51.2913L39.2545 51.5637L36.2669 51.2913ZM55.6417 70.207L54.5141 67.4269L55.6417 70.207ZM58.0859 66.2152L55.0864 66.1596L55.0864 66.1606L58.0859 66.2152ZM58.0931 65.8248L55.0936 65.7687L55.0936 65.7692L58.0931 65.8248ZM76.8891 70.1764V73.1764C76.9321 73.1764 76.975 73.1755 77.0179 73.1737L76.8891 70.1764ZM61.1292 51.2784L58.14 51.0246L61.1292 51.2784ZM78.2025 37.022L78.4767 34.0345H78.4767L78.2025 37.022ZM77.1002 58.871L77.012 55.8723H77.012L77.1002 58.871ZM73.4579 57.2378L75.7516 55.3042L73.4579 57.2378ZM81.5831 50.3782L84.2794 49.0629L81.5831 50.3782ZM74.2984 48.745L72.3338 46.4778L74.2984 48.745ZM127.167 16.909L124.808 18.7623L124.808 18.7624L127.167 16.909ZM126.465 16.8247L124.611 14.4657L124.611 14.4657L126.465 16.8247ZM131.171 23.6217L128.415 24.8051C128.958 26.0703 130.292 26.8034 131.651 26.5831C133.01 26.3628 134.045 25.2457 134.161 23.8738L131.171 23.6217ZM131.253 22.7976L128.273 22.4538L128.273 22.4539L131.253 22.7976ZM131.556 20.9711L134.477 21.6557V21.6557L131.556 20.9711ZM132.087 19.5128L129.514 17.9694L129.514 17.9694L132.087 19.5128ZM132.773 19.3413L131.229 21.9139L131.229 21.9139L132.773 19.3413ZM132.944 20.0273L135.517 21.5707L135.517 21.5707L132.944 20.0273ZM132.53 21.1993L129.609 20.5148L129.609 20.5148L132.53 21.1993ZM132.247 22.9122L135.227 23.2561L135.227 23.256L132.247 22.9122ZM132.059 26.1214L129.059 26.1116C129.058 26.3816 129.093 26.6505 129.164 26.9111L132.059 26.1214ZM132.27 27.008L129.331 27.606V27.606L132.27 27.008ZM132.017 31.4554L129.268 30.253L132.017 31.4554ZM131.935 38.5824L129.677 40.5578L129.677 40.5579L131.935 38.5824ZM131.888 39.2879L133.863 41.5457L133.863 41.5457L131.888 39.2879ZM131.182 39.2409L133.44 37.2655L133.44 37.2654L131.182 39.2409ZM131.1 31.0546L133.849 32.257V32.257L131.1 31.0546ZM131.298 27.2465L134.24 26.6586C134.206 26.4889 134.158 26.3225 134.095 26.1611L131.298 27.2465ZM126.815 24.7347L127.064 27.7243L127.064 27.7243L126.815 24.7347ZM126.732 23.7382L126.483 20.7485H126.483L126.732 23.7382ZM130.556 24.7612L128.762 27.1658C129.833 27.9649 131.304 27.9591 132.369 27.1517C133.434 26.3443 133.836 24.9299 133.356 23.6829L130.556 24.7612ZM126.38 17.5268L128.739 15.6734L128.739 15.6734L126.38 17.5268ZM119.408 7.30273L117.716 9.78L117.716 9.78001L119.408 7.30273ZM119.767 7.58967L117.792 9.84786L117.792 9.8479L119.767 7.58967ZM119.23 7.20009L120.468 4.46748L120.468 4.46741L119.23 7.20009ZM118.922 7.13902L118.728 4.14532L118.728 4.14532L118.922 7.13902ZM118.474 7.42929L115.819 6.03147L115.819 6.03157L118.474 7.42929ZM118.407 7.75147L115.41 7.89381L115.41 7.89405L118.407 7.75147ZM118.49 8.13311L121.345 7.21169L121.345 7.21162L118.49 8.13311ZM118.845 9.06275L116.062 10.1815C116.064 10.1881 116.067 10.1948 116.07 10.2014L118.845 9.06275ZM118.845 9.06309L121.629 7.94444C121.626 7.93776 121.624 7.93108 121.621 7.92442L118.845 9.06309ZM118.874 9.13415L121.658 8.01583L121.658 8.0155L118.874 9.13415ZM119.47 10.6721L122.286 9.63754L122.286 9.63753L119.47 10.6721ZM124.136 28.7556L126.571 27.0028L126.571 27.0028L124.136 28.7556ZM126.527 31.3198L124.678 33.6829L126.527 31.3198ZM127.143 30.5321L125.294 32.8952L125.295 32.8952L127.143 30.5321ZM124.948 28.1713L127.382 26.4185V26.4185L124.948 28.1713ZM120.409 10.3272L123.225 9.29269L123.225 9.29268L120.409 10.3272ZM119.877 8.94894L121.629 6.51332C120.546 5.73455 119.078 5.76435 118.028 6.58645C116.978 7.40856 116.596 8.82549 117.092 10.0638L119.877 8.94894ZM128.491 12.8286L127.574 15.6849L127.574 15.6849L128.491 12.8286ZM132.814 14.0731L133.561 11.1675L133.561 11.1675L132.814 14.0731ZM134.147 14.402L134.835 11.4821L134.835 11.482L134.147 14.402ZM134.513 14.4868L133.849 17.4125L133.854 17.4137L134.513 14.4868ZM134.609 14.5085L133.951 17.4353L133.959 17.4373L134.609 14.5085ZM134.634 14.514L133.984 17.4428L133.988 17.4437L134.634 14.514ZM134.641 14.5154L133.995 17.4452L134 17.4463L134.641 14.5154ZM134.642 14.5158L135.294 11.5875L135.283 11.585L134.642 14.5158ZM134.643 14.5159L133.991 17.4442L133.992 17.4445L134.643 14.5159ZM137.681 14.6689C138.035 13.0503 137.01 11.4511 135.391 11.0969C133.773 10.7427 132.173 11.7677 131.819 13.3862L137.681 14.6689ZM134.643 14.5161L131.712 13.8747C131.54 14.6613 131.691 15.4839 132.132 16.1578C132.573 16.8317 133.266 17.3002 134.055 17.4579L134.643 14.5161ZM134.651 14.5176L135.263 11.5807C135.255 11.579 135.247 11.5774 135.239 11.5758L134.651 14.5176ZM134.651 14.5177L134.039 17.4546C134.047 17.4562 134.055 17.4578 134.063 17.4594L134.651 14.5177ZM134.651 14.5177L135.245 11.5771L135.24 11.576L134.651 14.5177ZM134.652 14.5178L134.058 17.4584L134.065 17.46L134.652 14.5178ZM134.652 14.5178L135.312 11.5913C135.287 11.5858 135.263 11.5806 135.238 11.5756L134.652 14.5178ZM134.652 14.5179L133.992 17.4444C134.002 17.4467 134.013 17.449 134.023 17.4512L134.652 14.5179ZM134.661 14.5198L135.302 11.5891L135.29 11.5865L134.661 14.5198ZM134.677 14.5233L134.01 17.4482L134.01 17.4483L134.677 14.5233ZM134.703 14.5294L135.401 11.6118L135.401 11.6118L134.703 14.5294ZM134.865 14.5725L134.028 17.4535L134.028 17.4535L134.865 14.5725ZM135.38 14.7619L134.139 17.4929L134.139 17.4929L135.38 14.7619ZM136.19 15.4617L139.036 14.5132L139.036 14.5131L136.19 15.4617ZM137.138 15.1455L134.292 16.0942L134.292 16.0942L137.138 15.1455ZM135.794 13.8515L134.553 16.5826V16.5826L135.794 13.8515ZM135.143 13.6122L135.98 10.7312L135.98 10.7311L135.143 13.6122ZM134.935 13.5569L135.634 10.6394L135.634 10.6392L134.935 13.5569ZM134.875 13.5429L135.515 10.612L135.503 10.6094L134.875 13.5429ZM134.857 13.5391L135.485 10.6055C135.479 10.6042 135.473 10.6029 135.466 10.6017L134.857 13.5391ZM134.854 13.5385L134.209 16.4683C134.221 16.4709 134.232 16.4734 134.244 16.4759L134.854 13.5385ZM134.85 13.5375L134.2 16.4663L134.205 16.4673L134.85 13.5375ZM134.826 13.5324L134.168 16.4592L134.177 16.4612L134.826 13.5324ZM134.734 13.5116L134.07 16.4373L134.075 16.4384L134.734 13.5116ZM134.376 13.4287L135.064 10.5087L135.064 10.5087L134.376 13.4287ZM133.063 13.1046L132.317 16.0102V16.0102L133.063 13.1046ZM128.797 11.8765L127.88 14.7328H127.88L128.797 11.8765ZM165.82 4.60674C166.195 3.47952 165.974 2.23847 165.23 1.31108L160.549 5.06353C160.018 4.40107 159.859 3.5146 160.128 2.70947L165.82 4.60674ZM165.468 6.7537C165.618 5.47032 165.757 4.79508 165.82 4.60668L160.128 2.70953C159.844 3.55947 159.654 4.81145 159.509 6.05874L165.468 6.7537ZM165.106 10.9344C165.209 9.38491 165.33 7.93534 165.468 6.75366L159.509 6.05877C159.355 7.37896 159.226 8.93792 159.12 10.536L165.106 10.9344ZM164.722 19.5366C164.775 17.3916 164.9 14.0289 165.106 10.9344L159.12 10.536C158.907 13.7354 158.778 17.1853 158.724 19.3904L164.722 19.5366ZM164.716 19.6817C164.719 19.6353 164.721 19.5866 164.722 19.5358L158.724 19.3912C158.725 19.3543 158.727 19.3195 158.729 19.287L164.716 19.6817ZM164.71 19.7502L164.712 19.7338L158.733 19.2349L158.731 19.2514L164.71 19.7502ZM164.699 19.858L164.701 19.8428L158.74 19.1588L158.739 19.174L164.699 19.858ZM155.573 34.2748C159.932 31.5361 163.774 26.9566 164.694 19.904L158.744 19.128C158.089 24.1533 155.456 27.2627 152.381 29.1941L155.573 34.2748ZM143.429 37.9448C146.604 37.8813 151.333 36.9382 155.573 34.2748L152.381 29.1941C149.221 31.1793 145.599 31.9002 143.309 31.946L143.429 37.9448ZM139.86 34.5155C139.899 36.4481 141.496 37.9835 143.429 37.9448L143.309 31.946C144.69 31.9184 145.831 33.0152 145.859 34.3955L139.86 34.5155ZM143.289 30.9462C141.357 30.9849 139.821 32.5829 139.86 34.5155L145.859 34.3955C145.886 35.7759 144.79 36.9174 143.409 36.945L143.289 30.9462ZM151.849 28.3473C148.869 30.2195 145.431 30.9034 143.289 30.9462L143.409 36.945C146.436 36.8845 150.981 35.9784 155.041 33.4281L151.849 28.3473ZM157.75 19.0206C157.134 23.6951 154.705 26.5534 151.849 28.3473L155.041 33.4281C159.18 30.8278 162.816 26.5023 163.698 19.8046L157.75 19.0206ZM158.122 10.4696C157.909 13.6736 157.779 17.123 157.725 19.3389L163.723 19.4862C163.776 17.3299 163.902 13.9673 164.109 10.868L158.122 10.4696ZM158.515 5.94297C158.359 7.28623 158.229 8.8634 158.122 10.4696L164.109 10.868C164.212 9.31043 164.335 7.84261 164.475 6.63783L158.515 5.94297ZM158.898 3.45855C158.743 4.18925 158.619 5.0553 158.515 5.94292L164.475 6.63788C164.57 5.82131 164.669 5.16627 164.767 4.70149L158.898 3.45855ZM148.603 11.7694C153.098 8.97855 158.447 7.53484 162.211 7.05603L161.454 1.10401C157.069 1.66184 150.842 3.31711 145.438 6.67185L148.603 11.7694ZM140.155 24.7365C140.46 18.843 143.893 14.6931 148.603 11.7694L145.438 6.67185C139.669 10.2531 134.602 15.9483 134.163 24.4266L140.155 24.7365ZM136.479 28.051C138.41 28.1509 140.056 26.667 140.155 24.7364L134.163 24.4267C134.235 23.0476 135.411 21.9877 136.789 22.0591L136.479 28.051ZM133.165 24.3749C133.065 26.3053 134.549 27.9512 136.479 28.051L136.789 22.0591C138.168 22.1304 139.228 23.306 139.157 24.6849L133.165 24.3749ZM144.911 5.82225C138.967 9.51217 133.626 15.4644 133.165 24.3749L139.157 24.6848C139.484 18.3615 143.188 13.9538 148.075 10.9198L144.911 5.82225ZM162.142 0.0182729C157.602 0.483977 150.792 2.17104 144.911 5.82225L148.075 10.9198C153.007 7.85828 158.888 6.38351 162.754 5.98696L162.142 0.0182729ZM165.23 1.31108C164.487 0.383833 163.324 -0.102981 162.142 0.0182738L162.754 5.98696C161.91 6.07357 161.079 5.72585 160.549 5.06353L165.23 1.31108ZM160.071 13.4113C161.316 11.9326 161.127 9.72462 159.648 8.47959L155.784 13.0692C154.728 12.1799 154.592 10.6027 155.482 9.54654L160.071 13.4113ZM159.215 14.4294C159.519 14.0678 159.805 13.7274 160.071 13.4112L155.482 9.54658C155.213 9.86606 154.924 10.2093 154.621 10.5703L159.215 14.4294ZM159.272 14.36L159.272 14.3597L154.564 10.64L154.564 10.6402L159.272 14.36ZM159.209 14.4366L159.21 14.4355L154.626 10.5647L154.625 10.5658L159.209 14.4366ZM148.332 26.6321C151.612 23.4876 156.281 17.9221 159.214 14.4308L154.62 10.5716C151.598 14.1687 147.17 19.4342 144.18 22.3013L148.332 26.6321ZM146.464 28.2757C147.063 27.8094 147.698 27.2405 148.332 26.6321L144.18 22.3013C143.623 22.8351 143.153 23.2493 142.78 23.5397L146.464 28.2757ZM145.708 29.2063C145.925 28.8993 146.109 28.665 146.256 28.4957C146.411 28.3161 146.481 28.2626 146.464 28.2757L142.78 23.5397C142.034 24.1202 141.364 24.9584 140.812 25.7385L145.708 29.2063ZM145.484 23.0209C144.296 23.7752 143.129 24.3182 142.208 24.6627L144.311 30.2821C145.583 29.8062 147.129 29.0839 148.7 28.0861L145.484 23.0209ZM149.899 18.6551C148.863 20.4452 147.237 21.9081 145.484 23.0209L148.7 28.0861C150.98 26.6387 153.426 24.5389 155.092 21.6611L149.899 18.6551ZM154.681 17.3796C153.009 16.4111 150.867 16.9822 149.899 18.655L155.091 21.6611C154.4 22.856 152.87 23.264 151.675 22.5722L154.681 17.3796ZM155.957 22.1622C156.925 20.4892 156.354 18.348 154.681 17.3796L151.675 22.5722C150.481 21.8805 150.072 20.3511 150.764 19.1561L155.957 22.1622ZM149.236 28.9303C151.604 27.4272 154.186 25.2212 155.957 22.1621L150.764 19.1561C149.623 21.1274 147.861 22.6965 146.02 23.8651L149.236 28.9303ZM143.187 31.7044C144.752 31.2663 146.986 30.3594 149.236 28.9303L146.02 23.8651C144.272 24.9749 142.579 25.6441 141.57 25.9265L143.187 31.7044ZM139.566 41.2273C140.748 38.4193 143 33.5291 144.934 30.388L139.824 27.2428C137.645 30.7833 135.251 36.0133 134.036 38.8991L139.566 41.2273ZM134.982 43.0949C136.763 43.845 138.815 43.0088 139.566 41.2274L134.036 38.899C134.572 37.6266 136.037 37.0293 137.31 37.5651L134.982 43.0949ZM133.114 38.5111C132.364 40.2927 133.2 42.3449 134.982 43.0949L137.31 37.5651C138.582 38.1008 139.18 39.5666 138.644 40.8392L133.114 38.5111ZM139.007 26.6627C136.775 30.2738 134.339 35.6006 133.114 38.5111L138.644 40.8393C139.837 38.0047 142.13 33.023 144.111 29.8167L139.007 26.6627ZM138.939 23.9722C138.673 25.5674 138.573 27.1423 138.559 28.2011L144.559 28.2782C144.569 27.4711 144.65 26.2054 144.858 24.9592L138.939 23.9722ZM140.829 18.6934C139.691 20.2864 139.194 22.4453 138.939 23.9722L144.858 24.9592C145.095 23.539 145.43 22.5743 145.711 22.1807L140.829 18.6934ZM145.711 17.8795C144.138 16.756 141.952 17.1204 140.829 18.6934L145.711 22.1806C144.909 23.3042 143.347 23.5645 142.224 22.762L145.711 17.8795ZM146.525 22.7619C147.649 21.1889 147.284 19.0029 145.711 17.8795L142.224 22.762C141.1 21.9596 140.84 20.3982 141.643 19.2745L146.525 22.7619ZM145.844 25.1237C146.078 23.7184 146.387 22.9545 146.525 22.7618L141.642 19.2746C140.647 20.6685 140.177 22.6297 139.926 24.1367L145.844 25.1237ZM145.631 26.8688C145.677 26.3111 145.746 25.7107 145.844 25.1237L139.926 24.1367C139.796 24.9152 139.708 25.6829 139.651 26.3741L145.631 26.8688ZM142.166 22.7504C141.415 23.3343 140.761 24.1164 140.227 24.8401L145.055 28.4029C145.474 27.8347 145.744 27.5688 145.85 27.4864L142.166 22.7504ZM143.366 21.6957C142.876 22.1608 142.475 22.5103 142.166 22.7504L145.85 27.4863C146.37 27.0819 146.927 26.588 147.495 26.0483L143.366 21.6957ZM143.638 18.2117C142.957 20.184 142.592 22.1868 142.447 23.5572L148.414 24.1868C148.52 23.1847 148.802 21.6389 149.31 20.1708L143.638 18.2117ZM147.731 12.1179C145.511 13.6717 144.307 16.2776 143.638 18.2117L149.31 20.1708C149.88 18.5184 150.569 17.4547 151.172 17.0332L147.731 12.1179ZM152.605 12.978C151.497 11.3943 149.314 11.0094 147.731 12.1179L151.172 17.0332C150.041 17.825 148.482 17.5501 147.69 16.4188L152.605 12.978ZM151.745 17.8524C153.329 16.7438 153.714 14.5614 152.605 12.9779L147.69 16.4189C146.898 15.2878 147.173 13.729 148.304 12.9372L151.745 17.8524ZM150.255 20.4974C150.81 18.8907 151.413 18.0849 151.745 17.8524L148.304 12.9371C146.354 14.3025 145.235 16.6519 144.584 18.5382L150.255 20.4974ZM149.56 23.2295C149.707 22.3886 149.937 21.4184 150.255 20.4973L144.584 18.5382C144.14 19.8213 143.84 21.1101 143.65 22.1946L149.56 23.2295ZM153.858 9.92393C151.168 13.1263 147.367 17.6476 144.462 20.6126L148.748 24.8115C151.848 21.6471 155.811 16.9268 158.452 13.7833L153.858 9.92393ZM153.875 9.90348L153.858 9.92338L158.451 13.7839L158.468 13.764L153.875 9.90348ZM154.717 8.90249C154.452 9.21627 154.17 9.55199 153.875 9.90404L158.469 13.7634C158.765 13.4107 159.045 13.0778 159.306 12.7671L154.717 8.90249ZM159.648 8.47959C158.17 7.23448 155.962 7.4239 154.717 8.90243L159.306 12.7672C158.417 13.8232 156.84 13.9586 155.784 13.0692L159.648 8.47959ZM105.318 104.602C105.462 104.783 105.391 104.74 105.103 104.057C104.874 103.513 104.594 102.777 104.276 101.892C103.643 100.129 102.908 97.8999 102.204 95.6927C101.501 93.4912 100.837 91.3362 100.349 89.7298C100.104 88.9271 99.9043 88.2626 99.7654 87.7992C99.6959 87.5676 99.6418 87.3863 99.6051 87.2632C99.5867 87.2017 99.5728 87.1547 99.5634 87.1233C99.5587 87.1075 99.5552 87.0957 99.5529 87.0879C99.5518 87.084 99.5509 87.0811 99.5503 87.0792C99.55 87.0782 99.5498 87.0776 99.5497 87.0771C99.5497 87.0769 99.5496 87.0768 99.5496 87.0767C99.5496 87.0766 99.5496 87.0766 96.6733 87.9293C93.7971 88.7821 93.7971 88.7822 93.7971 88.7824C93.7972 88.7826 93.7973 88.7828 93.7974 88.7831C93.7975 88.7837 93.7978 88.7846 93.7981 88.7857C93.7988 88.7879 93.7997 88.7911 93.801 88.7954C93.8035 88.8039 93.8072 88.8164 93.8121 88.8328C93.8219 88.8656 93.8363 88.914 93.855 88.977C93.8926 89.103 93.9477 89.2875 94.0182 89.5225C94.1591 89.9924 94.3616 90.6648 94.6085 91.4762C95.1019 93.0982 95.7743 95.2808 96.4878 97.5167C97.1994 99.7468 97.9599 102.055 98.6285 103.918C98.9616 104.847 99.2834 105.698 99.5734 106.386C99.8048 106.935 100.169 107.771 100.633 108.35L105.318 104.602ZM107.691 103.98C107.349 104.208 106.633 104.433 105.831 104.433C105.457 104.433 105.191 104.383 105.051 104.338C104.879 104.283 105.075 104.299 105.318 104.602L100.633 108.35C101.386 109.292 102.395 109.787 103.216 110.05C104.07 110.325 104.976 110.433 105.831 110.433C107.485 110.433 109.448 110.021 111.02 108.972L107.691 103.98ZM108.323 103.378C108.234 103.522 108.204 103.57 108.178 103.607C108.174 103.613 108.171 103.617 108.169 103.62C108.167 103.622 108.166 103.623 108.166 103.623C108.166 103.623 108.166 103.623 108.167 103.622C108.167 103.622 108.167 103.622 108.167 103.622C108.166 103.623 108.16 103.63 108.147 103.642C108.133 103.655 108.11 103.675 108.074 103.704C108.001 103.764 107.882 103.853 107.691 103.98L111.02 108.972C111.624 108.569 112.133 108.17 112.568 107.7C113.011 107.223 113.282 106.768 113.435 106.519L108.323 103.378ZM109.246 102.05C108.78 102.633 108.507 103.078 108.323 103.378L113.435 106.519C113.583 106.277 113.702 106.085 113.931 105.798L109.246 102.05ZM116.483 102.05C115.462 100.774 113.926 99.935 112.146 100.253C110.687 100.514 109.724 101.453 109.246 102.05L113.931 105.798C113.915 105.819 113.875 105.866 113.79 105.926C113.707 105.985 113.51 106.104 113.201 106.16C112.857 106.221 112.487 106.18 112.167 106.038C111.874 105.909 111.766 105.759 111.798 105.798L116.483 102.05ZM119.873 104.483C119.904 104.449 119.976 104.387 120.083 104.341C120.181 104.299 120.24 104.301 120.221 104.301C120.14 104.302 119.84 104.266 119.299 104.016C118.218 103.517 117.02 102.561 116.262 101.803L112.019 106.045C113.069 107.095 114.838 108.564 116.782 109.463C118.521 110.266 121.909 111.224 124.358 108.469L119.873 104.483ZM123.281 88.9176C123.023 91.2426 122.51 94.8772 121.819 98.182C121.473 99.8381 121.094 101.351 120.7 102.552C120.503 103.152 120.316 103.632 120.146 103.991C119.964 104.376 119.86 104.499 119.873 104.483L124.358 108.469C125.317 107.39 125.952 105.792 126.4 104.424C126.892 102.928 127.323 101.175 127.692 99.4095C128.431 95.8712 128.971 92.0406 129.244 89.5802L123.281 88.9176ZM124.623 86.1962C125.085 85.7038 125.392 85.4612 125.551 85.3577C125.728 85.2428 125.577 85.3932 125.165 85.4117C124.64 85.4354 124.119 85.2262 123.763 84.8935C123.488 84.6353 123.44 84.4263 123.473 84.5222C123.545 84.7301 123.634 85.282 123.61 86.1753C123.589 87.0072 123.477 87.9006 123.324 88.644L129.201 89.8538C129.42 88.7894 129.577 87.5427 129.608 86.3308C129.638 85.1803 129.565 83.7849 129.147 82.5704C128.935 81.9551 128.561 81.1663 127.864 80.513C127.086 79.7853 126.048 79.3659 124.895 79.4178C123.856 79.4646 122.967 79.8817 122.284 80.3255C121.583 80.7807 120.906 81.3888 120.246 82.0928L124.623 86.1962ZM121.297 96.9208C121.342 95.6648 121.504 93.638 122.028 91.5474C122.562 89.418 123.404 87.4967 124.623 86.1962L120.246 82.0928C118.039 84.4475 116.861 87.4845 116.209 90.088C115.546 92.7302 115.354 95.2107 115.301 96.7081L121.297 96.9208ZM115.132 100.21C115.768 100.72 116.651 101.105 117.687 101.034C118.688 100.965 119.454 100.495 119.952 100.022C120.881 99.1403 121.261 97.9341 121.297 96.9208L115.301 96.7081C115.307 96.521 115.367 96.1021 115.82 95.6715C116.08 95.4244 116.57 95.0965 117.274 95.0479C118.012 94.997 118.578 95.2812 118.891 95.5329L115.132 100.21ZM112.134 93.5451C112.637 96.7294 113.571 98.9546 115.132 100.21L118.891 95.5329C119.027 95.6424 118.923 95.6245 118.723 95.173C118.523 94.7202 118.269 93.9249 118.061 92.6094L112.134 93.5451ZM111.362 93.5451C111.546 92.3785 111.877 91.7702 112.069 91.5265C112.16 91.4119 112.192 91.4107 112.134 91.443C112.067 91.4797 111.932 91.5311 111.748 91.5311C111.565 91.5311 111.429 91.4797 111.362 91.443C111.304 91.4107 111.337 91.4119 111.427 91.5265C111.619 91.7702 111.95 92.3785 112.134 93.5451L118.061 92.6094C117.767 90.7452 117.14 89.0805 116.137 87.8088C115.121 86.5221 113.603 85.5311 111.748 85.5311C109.893 85.5311 108.375 86.5221 107.36 87.8088C106.356 89.0805 105.73 90.7452 105.435 92.6094L111.362 93.5451ZM110.735 98.306C110.802 97.624 110.942 96.2056 111.362 93.5451L105.435 92.6094C104.992 95.4149 104.839 96.9533 104.764 97.715L110.735 98.306ZM107.97 101.584C109.292 101.446 109.975 100.55 110.183 100.231C110.416 99.8737 110.517 99.5495 110.552 99.4363C110.63 99.1781 110.662 98.949 110.671 98.8851C110.695 98.711 110.717 98.4823 110.735 98.306L104.764 97.715C104.753 97.8243 104.745 97.9026 104.739 97.9653C104.732 98.0324 104.729 98.049 104.73 98.0409C104.731 98.0354 104.735 98.0053 104.744 97.9601C104.751 97.922 104.771 97.8239 104.809 97.6966C104.837 97.6058 104.932 97.2981 105.158 96.9522C105.358 96.6447 106.033 95.7539 107.347 95.6167L107.97 101.584ZM104.828 99.6687C104.837 99.6878 104.856 99.7312 104.876 99.7741C104.894 99.8127 104.934 99.8988 104.989 99.9981C105.024 100.063 105.16 100.313 105.395 100.579C105.493 100.689 106.398 101.748 107.969 101.584L107.347 95.6167C108.146 95.5334 108.783 95.7842 109.171 96.0125C109.538 96.2281 109.774 96.473 109.888 96.6027C110.111 96.8542 110.233 97.0833 110.254 97.1214C110.31 97.2245 110.35 97.3176 110.305 97.2183L104.828 99.6687ZM104.883 99.785L104.883 99.7851L110.25 97.1018L110.25 97.1018L104.883 99.785ZM104.721 99.392L104.721 99.3921L110.413 97.4947L110.413 97.4946L104.721 99.392ZM104.787 99.5788C104.791 99.586 104.797 99.5977 104.828 99.6686L110.305 97.218C110.273 97.1475 110.199 96.9787 110.096 96.7846L104.787 99.5788ZM100.552 90.084C101.607 92.8153 102.653 95.5238 104.787 99.5788L110.096 96.7846C108.127 93.0433 107.181 90.5943 106.149 87.9221L100.552 90.084ZM98.6321 85.3469C99.3998 87.1018 99.9725 88.5835 100.552 90.084L106.149 87.9221C105.57 86.4237 104.955 84.8308 104.129 82.9421L98.6321 85.3469ZM99.5534 87.0895C99.0663 85.4192 99.1286 84.5948 99.1891 84.3366C99.2129 84.2346 99.2133 84.3185 99.0867 84.4663C98.9504 84.6254 98.7544 84.7548 98.5411 84.8204C98.1613 84.9372 98.0435 84.7824 98.231 84.891C98.3823 84.9786 98.5445 85.1466 98.632 85.3468L104.129 82.9422C103.509 81.5254 102.451 80.401 101.238 79.6987C100.061 79.0174 98.4363 78.5753 96.7774 79.0855C94.9369 79.6515 93.7696 81.1632 93.3469 82.9695C92.955 84.644 93.164 86.6112 93.7933 88.7692L99.5534 87.0895ZM72.7305 85.3754V103.56H78.7305V85.3754H72.7305ZM78.9205 79.5042C77.5636 79.5042 76.0712 79.905 74.8532 80.8795C73.5589 81.915 72.7305 83.4874 72.7305 85.3754H78.7305C78.7305 85.3455 78.7335 85.3408 78.7301 85.356C78.7266 85.3716 78.7186 85.3982 78.7028 85.4308C78.6683 85.5016 78.624 85.5465 78.6015 85.5645C78.5843 85.5783 78.5992 85.5615 78.6635 85.5409C78.7279 85.5203 78.8172 85.5042 78.9205 85.5042V79.5042ZM90.0855 79.5042H78.9205V85.5042H90.0855V79.5042ZM90.0855 90.2896C91.6824 90.2896 93.1428 89.7249 94.2044 88.6391C95.2334 87.5867 95.7173 86.2163 95.7173 84.8969C95.7173 83.5775 95.2334 82.2071 94.2044 81.1546C93.1428 80.0688 91.6824 79.5042 90.0855 79.5042V85.5042C90.1804 85.5042 90.1839 85.5196 90.1281 85.4974C90.0706 85.4745 89.9908 85.4275 89.9142 85.3492C89.7625 85.194 89.7173 85.0199 89.7173 84.8969C89.7173 84.7738 89.7625 84.5998 89.9142 84.4446C89.9908 84.3662 90.0706 84.3193 90.1281 84.2964C90.1839 84.2742 90.1804 84.2896 90.0855 84.2896V90.2896ZM82.4295 90.2896H90.0855V84.2896H82.4295V90.2896ZM82.4295 89.075C82.7134 89.075 83.0201 89.1586 83.2869 89.3254C83.5348 89.4804 83.6657 89.6541 83.7206 89.7424C83.7742 89.8286 83.7785 89.8681 83.7706 89.8363C83.7636 89.8083 83.7547 89.7535 83.7547 89.6823C83.7547 89.611 83.7636 89.5562 83.7706 89.5282C83.7785 89.4965 83.7742 89.536 83.7206 89.6221C83.6657 89.7104 83.5348 89.8842 83.2869 90.0391C83.0201 90.2059 82.7134 90.2896 82.4295 90.2896V84.2896C80.61 84.2896 79.3226 85.3331 78.6262 86.4525C77.9802 87.4908 77.7547 88.6755 77.7547 89.6823C77.7547 90.6891 77.9802 91.8737 78.6262 92.9121C79.3226 94.0314 80.61 95.075 82.4295 95.075V89.075ZM90.0855 89.075H82.4295V95.075H90.0855V89.075ZM90.0855 99.8604C91.905 99.8604 93.1924 98.8168 93.8888 97.6975C94.5348 96.6591 94.7603 95.4745 94.7603 94.4677C94.7603 93.4608 94.5348 92.2762 93.8888 91.2379C93.1924 90.1185 91.905 89.075 90.0855 89.075V95.075C89.8016 95.075 89.495 94.9913 89.2281 94.8245C88.9802 94.6696 88.8493 94.4958 88.7944 94.4075C88.7408 94.3214 88.7365 94.2819 88.7444 94.3136C88.7514 94.3416 88.7603 94.3964 88.7603 94.4677C88.7603 94.5389 88.7514 94.5937 88.7444 94.6217C88.7365 94.6534 88.7408 94.614 88.7944 94.5278C88.8493 94.4395 88.9802 94.2658 89.2281 94.1108C89.495 93.944 89.8016 93.8604 90.0855 93.8604V99.8604ZM82.4295 99.8604H90.0855V93.8604H82.4295V99.8604ZM82.4295 98.6458C82.7145 98.6458 83.0006 98.701 83.2677 98.8083C83.5298 98.9137 83.7335 99.0528 83.8817 99.1825C84.1601 99.4261 84.2601 99.649 84.2738 99.6797C84.2942 99.7256 84.2795 99.7068 84.2617 99.6066C84.2451 99.5131 84.2332 99.3905 84.2332 99.2531C84.2332 99.1156 84.2451 98.993 84.2617 98.8995C84.2795 98.7993 84.2942 98.7805 84.2738 98.8264C84.2601 98.8571 84.1601 99.08 83.8817 99.3236C83.7335 99.4533 83.5298 99.5924 83.2677 99.6978C83.0006 99.8051 82.7145 99.8604 82.4295 99.8604V93.8604C80.2418 93.8604 79.1662 95.5452 78.7908 96.3897C78.3702 97.3362 78.2332 98.3814 78.2332 99.2531C78.2332 100.125 78.3702 101.17 78.7908 102.116C79.1662 102.961 80.2418 104.646 82.4295 104.646V98.6458ZM91.0425 98.6458H82.4295V104.646H91.0425V98.6458ZM91.0425 109.75C93.2596 109.75 94.3399 107.996 94.701 107.226C95.143 106.283 95.328 105.219 95.3569 104.292C95.3855 103.378 95.2734 102.247 94.8122 101.217C94.3437 100.171 93.1772 98.6458 91.0425 98.6458V104.646C90.8221 104.646 90.584 104.608 90.3467 104.521C90.1112 104.435 89.9158 104.316 89.7627 104.191C89.47 103.953 89.3591 103.72 89.3364 103.67C89.3098 103.61 89.324 103.621 89.3402 103.724C89.3552 103.82 89.3646 103.951 89.3599 104.104C89.3551 104.256 89.3372 104.4 89.3124 104.517C89.2864 104.641 89.2624 104.692 89.2682 104.679C89.2724 104.67 89.2926 104.628 89.3368 104.565C89.3804 104.502 89.4609 104.399 89.5902 104.285C89.7213 104.169 89.9128 104.032 90.1699 103.925C90.4337 103.815 90.7312 103.75 91.0425 103.75V109.75ZM80.1965 109.75H91.0425V103.75H80.1965V109.75ZM72.7305 103.56C72.7305 104.829 73.2302 106.413 74.5107 107.683C75.8529 109.015 77.7888 109.75 80.1965 109.75V103.75C79.6 103.75 79.2329 103.662 79.0287 103.586C78.8317 103.514 78.7556 103.443 78.7366 103.424C78.6774 103.365 78.7305 103.354 78.7305 103.56H72.7305ZM68.8438 105.154V84.7366H62.8438V105.154H68.8438ZM67.9478 105.154C67.9478 105.225 67.9361 105.191 67.9774 105.096C68.0199 104.998 68.0927 104.896 68.1881 104.814C68.2785 104.736 68.3611 104.699 68.4109 104.683C68.4586 104.667 68.4847 104.668 68.4895 104.668C68.4944 104.668 68.5018 104.669 68.5172 104.674C68.5333 104.68 68.5755 104.699 68.63 104.747C68.6882 104.799 68.7501 104.876 68.7944 104.973C68.8399 105.073 68.8438 105.145 68.8438 105.154H62.8438C62.8438 108.778 65.8476 110.588 68.302 110.665C69.5659 110.704 70.9753 110.336 72.1124 109.353C73.3109 108.316 73.9478 106.819 73.9478 105.154H67.9478ZM67.9478 84.7366V105.154H73.9478V84.7366H67.9478ZM68.8438 84.7366C68.8438 84.5936 68.8669 84.5476 68.8591 84.5678C68.8505 84.5898 68.8226 84.6445 68.7626 84.7045C68.6417 84.8254 68.4999 84.8655 68.3958 84.8655C68.2917 84.8655 68.1498 84.8254 68.0289 84.7045C67.9689 84.6445 67.941 84.5898 67.9324 84.5677C67.9246 84.5476 67.9478 84.5936 67.9478 84.7366H73.9478C73.9478 83.0808 73.3777 81.5681 72.2716 80.4619C71.1937 79.384 69.7759 78.8654 68.3958 78.8655C67.0156 78.8655 65.5978 79.384 64.5199 80.462C63.4138 81.5681 62.8438 83.0808 62.8438 84.7366H68.8438ZM60.6685 84.7904C60.7264 84.6914 60.8027 84.6369 60.8249 84.6257C60.8625 84.6068 60.6542 84.727 60.2718 84.6106C60.0721 84.5498 59.8909 84.4399 59.7545 84.3047C59.623 84.1744 59.5864 84.0745 59.5909 84.0864C59.6136 84.146 59.7445 84.599 59.5778 85.6993L65.5102 86.598C65.7644 84.9197 65.7205 83.3283 65.2009 81.9584C64.6471 80.4985 63.5514 79.3371 62.0193 78.8707C59.2175 78.0177 56.6294 79.8093 55.4875 81.7644L60.6685 84.7904ZM55.2694 99.2006C55.773 97.5685 56.6276 94.8004 57.6239 91.9816C58.6415 89.1025 59.7292 86.3986 60.6685 84.7904L55.4875 81.7644C54.2336 83.9113 52.987 87.096 51.9669 89.9821C50.9255 92.9283 50.039 95.802 49.5361 97.4313L55.2694 99.2006ZM54.863 100.496C54.9532 100.226 55.0982 99.7551 55.2694 99.2006L49.5361 97.4314C49.3523 98.0271 49.2338 98.4104 49.1709 98.5991L54.863 100.496ZM47.8949 100.496C47.9971 100.803 48.1548 101.191 48.3857 101.576C48.5586 101.864 49.0359 102.61 49.9507 103.057C50.4855 103.318 51.195 103.485 51.987 103.34C52.758 103.198 53.3304 102.811 53.7077 102.45C54.3754 101.81 54.6935 101.005 54.863 100.496L49.1709 98.5991C49.0852 98.8561 49.1428 98.5139 49.5566 98.1174C49.807 97.8774 50.2541 97.5575 50.903 97.4383C51.5729 97.3152 52.1634 97.4602 52.5839 97.6656C52.9689 97.8536 53.2064 98.0859 53.3172 98.207C53.4362 98.3372 53.5034 98.4432 53.5308 98.4889C53.5614 98.5399 53.576 98.5723 53.5798 98.5808C53.5843 98.591 53.586 98.5959 53.587 98.5991L47.8949 100.496ZM43.4601 84.942C43.8635 85.5469 44.3802 86.7202 44.9347 88.3834C45.4671 89.9806 45.9634 91.8079 46.3917 93.5604C46.8183 95.3061 47.1686 96.9409 47.4124 98.1411C47.5341 98.7402 47.6288 99.2285 47.6927 99.5652C47.7247 99.7335 47.7489 99.8638 47.765 99.9509C47.773 99.9944 47.779 100.027 47.7829 100.048C47.7848 100.059 47.7862 100.067 47.7871 100.072C47.7875 100.074 47.7878 100.076 47.788 100.077C47.7881 100.077 47.7881 100.078 47.7881 100.078C47.7882 100.078 47.7881 100.078 47.7881 100.078C47.7881 100.078 47.7881 100.077 50.741 99.5477C53.6938 99.018 53.6938 99.0178 53.6937 99.0175C53.6937 99.0173 53.6936 99.017 53.6936 99.0166C53.6935 99.016 53.6933 99.0151 53.6931 99.0141C53.6927 99.012 53.6922 99.0092 53.6916 99.0056C53.6903 98.9985 53.6885 98.9883 53.6861 98.9753C53.6814 98.9493 53.6745 98.9117 53.6656 98.8632C53.6477 98.7662 53.6215 98.6254 53.5874 98.446C53.5193 98.0874 53.4197 97.5737 53.2923 96.9466C53.0379 95.6943 52.6706 93.9793 52.2201 92.136C51.7713 90.2994 51.2309 88.2984 50.6268 86.486C50.0446 84.7397 49.3249 82.9221 48.4518 81.6129L43.4601 84.942ZM43.6312 85.0193C43.6446 85.0523 43.6415 85.0624 43.6408 85.0408C43.6399 85.0179 43.6426 84.9749 43.6578 84.9189C43.6731 84.8628 43.6959 84.8129 43.7188 84.7761C43.742 84.7388 43.7537 84.733 43.7374 84.7466C43.7193 84.7617 43.6642 84.8017 43.5678 84.8321C43.4651 84.8645 43.358 84.872 43.2701 84.8602C43.1856 84.849 43.1792 84.8282 43.2556 84.8733C43.3368 84.9211 43.5031 85.0391 43.7357 85.295L48.1762 81.2599C47.0542 80.0252 45.6695 79.1275 44.0645 78.9131C42.4201 78.6934 40.9636 79.2497 39.901 80.1333C37.9689 81.7401 37.0243 84.698 38.0726 87.278L43.6312 85.0193ZM52.3887 105.716C52.2313 105.44 51.7758 104.465 51.065 102.84C50.388 101.293 49.5493 99.321 48.6584 97.1983C46.8776 92.9553 44.9042 88.1488 43.6308 85.0183L38.073 87.279C39.3517 90.4227 41.3339 95.2507 43.1259 99.5203C44.0214 101.654 44.8734 103.658 45.5681 105.245C46.229 106.756 46.8262 108.075 47.1792 108.693L52.3887 105.716ZM50.6961 105.252C50.6962 105.252 50.6934 105.255 50.6878 105.261C50.6823 105.267 50.6755 105.273 50.6676 105.281C50.6507 105.296 50.6367 105.307 50.6294 105.312C50.5965 105.335 50.6755 105.268 50.8759 105.224C51.1154 105.171 51.5086 105.161 51.9164 105.356C52.3038 105.541 52.4236 105.777 52.3887 105.716L47.1792 108.693C47.6547 109.525 48.3488 110.301 49.3303 110.77C50.3322 111.248 51.3394 111.266 52.1692 111.083C53.6558 110.755 54.7249 109.771 55.2518 109.157L50.6961 105.252ZM59.5778 85.6993C59.2229 88.0422 57.8211 91.8014 55.9627 95.7457C54.1335 99.6282 52.0371 103.325 50.5215 105.477L55.4265 108.932C57.2072 106.404 59.4711 102.377 61.3905 98.3029C63.2808 94.2908 65.0158 89.8617 65.5102 86.598L59.5778 85.6993ZM101.888 18.0106C86.8068 10.945 71.8235 12.4637 59.399 17.0861C47.0235 21.6902 36.9847 29.4357 31.452 35.2483L35.798 39.385C40.7924 34.1379 50.085 26.953 61.4911 22.7095C72.8481 18.4843 86.0964 17.238 99.3425 23.4439L101.888 18.0106ZM86.3683 25.3029C91.9115 22.4202 97.7834 23.0262 99.7751 23.6072L101.455 17.8473C98.3431 16.9394 90.8169 16.2266 83.6 19.9797L86.3683 25.3029ZM117.519 29.2482C115.907 27.4566 113.421 26.1123 110.875 25.0693C108.248 23.9929 105.189 23.0934 102.102 22.3555C95.9281 20.8794 89.3454 19.9806 85.2234 19.6508L84.7449 25.6317C88.598 25.94 94.871 26.7958 100.707 28.191C103.626 28.8887 106.361 29.704 108.6 30.6214C110.921 31.5724 112.375 32.5011 113.059 33.2618L117.519 29.2482ZM104.445 5.96967L112.42 32.1298L118.159 30.3802L110.184 4.22004L104.445 5.96967ZM111.593 18.7475C110.977 17.5162 110.471 14.9902 110.232 12.083C109.998 9.22648 110.071 6.68444 110.264 5.64108L104.364 4.54863C104.026 6.37651 104.004 9.54503 104.253 12.5745C104.497 15.5534 105.055 19.0888 106.226 21.4306L111.593 18.7475ZM36.3136 38.6475C43.7279 23.6695 58.2704 16.1342 72.7941 14.1282C80.0432 13.1269 87.1685 13.5275 93.1971 15.016C99.2787 16.5177 103.971 19.0545 106.669 22.0841L111.15 18.094C107.361 13.8392 101.393 10.8596 94.6354 9.19097C87.8241 7.50918 79.9298 7.08561 71.9732 8.1846C56.0854 10.3791 39.4722 18.7419 30.9364 35.9857L36.3136 38.6475ZM16.3504 88.7289C18.1395 96.333 22.9242 108.531 31.7461 119.429C40.6046 130.372 53.6433 140.123 71.8556 142.382L72.5941 136.428C56.284 134.405 44.5469 125.706 36.4096 115.653C28.2357 105.556 23.8045 94.2131 22.1909 87.3547L16.3504 88.7289ZM16.0202 111.485C19.7635 107.555 21.5186 102.528 22.2487 98.1453C22.9754 93.7821 22.7446 89.7079 22.1909 87.3547L16.3504 88.7289C16.6975 90.204 16.9452 93.4673 16.3302 97.1596C15.7186 100.832 14.3118 104.579 11.6752 107.348L16.0202 111.485ZM14.6757 81.9803C14.6757 88.6546 12.5045 101.789 10.9222 108.752L16.7731 110.081C18.3808 103.007 20.6757 89.3431 20.6757 81.9803H14.6757ZM24.249 80.8539C23.6901 80.0854 23.0625 79.3616 22.3999 78.7646C21.7851 78.2106 20.9316 77.5746 19.9081 77.2703C18.7374 76.9222 17.0059 76.9745 15.7691 78.4413C14.8216 79.5651 14.6757 80.9888 14.6757 81.9803H20.6757C20.6757 81.7466 20.6981 81.6748 20.6884 81.7138C20.6801 81.7469 20.6129 82.0045 20.3561 82.3091C20.0658 82.6534 19.6371 82.9302 19.1335 83.0393C18.6777 83.138 18.3362 83.0625 18.1982 83.0215C17.9795 82.9565 18.0468 82.9186 18.3836 83.2221C18.6725 83.4824 19.0273 83.8752 19.3964 84.3828L24.249 80.8539ZM27.825 85.2283C26.0407 83.0897 24.7307 81.5163 24.249 80.8539L19.3964 84.3828C20.0304 85.2545 21.5285 87.0472 23.2178 89.072L27.825 85.2283ZM38.0441 98.1941C35.7633 94.7358 31.0894 89.1411 27.825 85.2283L23.2178 89.072C26.5924 93.1169 30.988 98.3931 33.0354 101.497L38.0441 98.1941ZM23.0921 94.8127C25.7889 97.0603 32.1238 101.349 34.0512 102.45L37.0282 97.2411C35.3828 96.3008 29.3405 92.2097 26.9333 90.2036L23.0921 94.8127ZM72.5071 129.081C57.4287 127.656 46.2886 118.44 38.7899 109.243C35.0584 104.667 32.2946 100.172 30.465 96.8211C29.5518 95.1483 28.8754 93.7679 28.431 92.8147C28.209 92.3384 28.0451 91.9693 27.9389 91.7245C27.8858 91.6021 27.8471 91.5109 27.8228 91.4529C27.8106 91.4238 27.802 91.4031 27.797 91.391C27.7945 91.3849 27.7929 91.381 27.7922 91.3793C27.7919 91.3784 27.7917 91.3781 27.7918 91.3783C27.7919 91.3784 27.7921 91.379 27.7921 91.3791C27.7924 91.3798 27.7928 91.3807 25.0127 92.5082C22.2326 93.6356 22.2331 93.6368 22.2336 93.6381C22.2339 93.6387 22.2344 93.6401 22.2349 93.6413C22.2359 93.6437 22.2372 93.6468 22.2386 93.6503C22.2415 93.6574 22.2453 93.6667 22.2501 93.6782C22.2596 93.7012 22.2727 93.7329 22.2895 93.773C22.3232 93.8533 22.3716 93.9673 22.4348 94.113C22.5612 94.4043 22.747 94.8224 22.993 95.35C23.4847 96.4047 24.2179 97.8995 25.1987 99.6961C27.1573 103.284 30.1196 108.105 34.1398 113.035C42.1445 122.852 54.6105 133.416 71.9426 135.054L72.5071 129.081ZM133.86 98.7773C131.077 106.08 125.471 114.54 115.787 120.726C106.132 126.894 92.201 130.942 72.5071 129.081L71.9426 135.054C92.7619 137.021 108.071 132.774 119.017 125.782C129.935 118.808 136.292 109.244 139.466 100.914L133.86 98.7773ZM135.529 58.0558C137.725 70.5996 139.865 83.0201 133.86 98.7773L139.466 100.914C146.106 83.4933 143.644 69.6205 141.439 57.0214L135.529 58.0558ZM133.677 45.5794C134.083 49.802 134.813 53.9653 135.529 58.0558L141.439 57.0214C140.716 52.8915 140.029 48.9575 139.649 45.0052L133.677 45.5794ZM71.8354 142.38C91.6081 144.968 116.301 139.573 132.237 123.748C148.451 107.647 154.92 81.4739 139.434 44.1428L133.892 46.4418C148.712 82.1676 142.048 105.55 128.01 119.491C113.694 133.707 91.0154 138.84 72.6143 136.43L71.8354 142.38ZM6.1303 50.4987C6.35779 48.8936 7.70253 46.1977 10.1238 43.8524C12.4905 41.5598 15.4801 39.9977 18.6511 39.9977V33.9977C13.4758 33.9977 9.06758 36.5221 5.9492 39.5427C2.88532 42.5106 0.657627 46.3548 0.189664 49.6568L6.1303 50.4987ZM6.67867 58.5118C5.98034 56.0469 5.86601 52.3637 6.1303 50.4987L0.189664 49.6568C-0.179005 52.2583 -0.0445669 56.7925 0.905876 60.1473L6.67867 58.5118ZM20.8641 67.1764C18.7958 67.1764 15.5024 66.3286 12.4864 64.6456C9.4327 62.9416 7.31355 60.7527 6.67867 58.5118L0.905876 60.1473C2.16905 64.6059 5.89857 67.8405 9.56269 69.8851C13.2644 71.9506 17.5579 73.1764 20.8641 73.1764V67.1764ZM29.7391 62.7789C29.4355 63.6212 28.5096 64.734 26.8038 65.6759C25.1482 66.5901 23.0382 67.1764 20.8641 67.1764V73.1764C24.0644 73.1764 27.1707 72.3272 29.704 70.9284C32.1872 69.5573 34.4227 67.4799 35.3837 64.8129L29.7391 62.7789ZM29.0569 61.8958C28.7925 62.0559 28.5973 62.0798 28.5729 62.0826C28.5378 62.0867 28.5735 62.0785 28.6813 62.0952C28.9082 62.1301 29.2073 62.2359 29.4624 62.402C29.7197 62.5695 29.784 62.6981 29.7839 62.6979C29.7801 62.6894 29.7739 62.6678 29.7733 62.6483C29.7728 62.6294 29.7791 62.6678 29.7391 62.7789L35.3837 64.8129C35.9541 63.2303 35.883 61.6524 35.2698 60.268C34.6868 58.9518 33.7038 58.0038 32.736 57.3737C31.7661 56.7422 30.6623 56.3296 29.595 56.1651C28.6246 56.0156 27.2059 56.0025 25.9493 56.7633L29.0569 61.8958ZM15.0057 62.6036C17.8537 64.1511 20.9674 64.1838 23.3792 63.8094C25.7811 63.4365 27.8985 62.5972 29.0569 61.8958L25.9493 56.7633C25.527 57.019 24.1668 57.6153 22.4588 57.8804C20.7607 58.144 19.1322 58.0173 17.8704 57.3316L15.0057 62.6036ZM15.0856 53.4614C14.6823 53.6651 14.1223 53.9761 13.5852 54.3997C13.0882 54.7915 12.3407 55.4878 11.9335 56.5401C11.4492 57.7917 11.5968 59.1578 12.3507 60.3291C12.997 61.3333 13.9909 62.0521 15.0057 62.6036L17.8704 57.3316C17.5822 57.175 17.4212 57.0594 17.3445 56.9965C17.2658 56.932 17.3136 56.9539 17.3959 57.0818C17.4862 57.222 17.605 57.4716 17.6424 57.8141C17.6801 58.1601 17.6203 58.4698 17.5292 58.7054C17.4444 58.9245 17.3435 59.0535 17.3062 59.0976C17.2678 59.1429 17.2573 59.145 17.3002 59.1112C17.3953 59.0362 17.5621 58.9325 17.7905 58.8172L15.0856 53.4614ZM28.4515 52.5012C25.8591 52.5012 23.1117 52.5008 20.8527 52.583C19.725 52.624 18.6624 52.6873 17.7705 52.7902C17.0263 52.876 15.9385 53.0307 15.0856 53.4614L17.7905 58.8172C17.5692 58.9289 17.6467 58.8442 18.4581 58.7506C19.1219 58.6741 20.0052 58.6178 21.0707 58.579C23.198 58.5016 25.8256 58.5012 28.4515 58.5012V52.5012ZM30.4217 48.978C30.4104 48.9502 30.5046 49.2331 30.5026 49.7929C30.5008 50.3081 30.4163 50.8495 30.2466 51.3065C30.0793 51.7569 29.8683 52.0278 29.6661 52.1838C29.495 52.3158 29.1608 52.5012 28.4515 52.5012V58.5012C30.3514 58.5012 32.0075 57.9555 33.3311 56.9344C34.6235 55.9373 35.4117 54.633 35.8713 53.3952C36.3285 52.164 36.4987 50.9043 36.5026 49.8143C36.5063 48.769 36.3573 47.643 35.9771 46.7112L30.4217 48.978ZM18.6511 39.9977C21.8692 39.9977 24.5187 41.4199 26.5731 43.3379C28.6709 45.2965 29.9436 47.5907 30.3596 48.812L36.0392 46.8773C35.296 44.6956 33.4676 41.5663 30.6677 38.9522C27.8242 36.2975 23.7791 33.9977 18.6511 33.9977V39.9977ZM21.7965 47.3968H15.7605V53.3968H21.7965V47.3968ZM20.5663 50.1757C20.4196 49.9581 20.2746 49.6083 20.2778 49.1648C20.281 48.7272 20.428 48.3459 20.6273 48.064C21.0088 47.5242 21.512 47.3968 21.7965 47.3968V53.3968C23.1935 53.3968 24.6382 52.7843 25.5267 51.5275C26.5104 50.136 26.5408 48.304 25.5411 46.8214L20.5663 50.1757ZM19.4292 48.9199C19.5034 48.9722 19.6836 49.1206 19.9233 49.3751C20.1529 49.6189 20.3802 49.8997 20.5663 50.1757L25.5411 46.8214C24.8165 45.7466 23.8184 44.6719 22.8822 44.0131L19.4292 48.9199ZM18.8164 48.9207C18.701 49.0018 18.661 48.9951 18.7554 48.971C18.8389 48.9496 18.9684 48.9305 19.1237 48.9305C19.279 48.9304 19.4083 48.9496 19.4915 48.9708C19.5856 48.9949 19.545 49.0014 19.4292 48.9199L22.8822 44.0131C21.693 43.1763 20.2469 42.9303 19.123 42.9305C17.999 42.9306 16.5539 43.1769 15.3656 44.0124L18.8164 48.9207ZM17.4699 50.5197C17.6253 50.2325 17.8729 49.8829 18.1658 49.5484C18.4686 49.2027 18.716 48.9913 18.8164 48.9207L15.3656 44.0124C14.252 44.7953 12.9675 46.2335 12.1935 47.663L17.4699 50.5197ZM15.7605 47.3968C16.2445 47.3968 16.8477 47.6101 17.2811 48.1857C17.7843 48.8538 17.8658 49.7884 17.4699 50.5197L12.1935 47.663C11.4421 49.051 11.6171 50.6384 12.4882 51.795C13.2895 52.8591 14.5349 53.3968 15.7605 53.3968V47.3968ZM52.1526 44.9893C49.6849 44.9893 47.7409 46.3437 46.4788 47.8656C45.2103 49.3953 44.3808 51.3611 44.1184 53.3242C43.8582 55.2711 44.1203 57.5633 45.5149 59.4474C46.9905 61.441 49.3418 62.454 52.1526 62.454V56.454C50.8236 56.454 50.4531 56.0339 50.3375 55.8778C50.141 55.6123 49.9427 55.0383 50.0655 54.119C50.1862 53.216 50.5832 52.3156 51.0973 51.6957C51.6179 51.0679 52.0127 50.9893 52.1526 50.9893V44.9893ZM56.1013 41.6228C55.9784 43.7363 55.591 44.2483 55.4349 44.395C55.2639 44.5556 54.6079 44.9893 52.1526 44.9893V50.9893C54.9302 50.9893 57.6151 50.5785 59.5422 48.7688C61.4841 46.9451 61.9522 44.3611 62.0911 41.9712L56.1013 41.6228ZM55.9445 41.0023C55.9559 41.0111 55.9957 41.045 56.0363 41.1475C56.0799 41.2572 56.1129 41.4221 56.1013 41.6228L62.0911 41.9711C62.2053 40.0072 61.5245 37.7403 59.6269 36.2652L55.9445 41.0023ZM39.2545 51.5637C39.6368 47.3705 42.4678 43.5499 46.1409 41.391C49.8678 39.2005 53.5768 39.1617 55.9445 41.0023L59.6269 36.2652C54.6062 32.3624 48.0425 33.3136 43.1006 36.2183C38.1048 39.1547 33.8705 44.5346 33.2793 51.0189L39.2545 51.5637ZM54.5141 67.4269C50.7358 68.9593 46.8302 67.9235 43.8091 64.9801C40.7593 62.0088 38.7447 57.1548 39.2545 51.5637L33.2793 51.0189C32.6124 58.3335 35.222 64.9908 39.6221 69.2777C44.0509 73.5925 50.4211 75.5616 56.7692 72.987L54.5141 67.4269ZM55.0864 66.1606C55.0793 66.5495 54.978 66.8787 54.849 67.1005C54.7291 67.3068 54.6091 67.3884 54.5141 67.4269L56.7692 72.987C59.7713 71.7694 61.0395 68.789 61.0854 66.2698L55.0864 66.1606ZM55.0936 65.7692L55.0864 66.1596L61.0854 66.2707L61.0926 65.8803L55.0936 65.7692ZM52.1526 62.454C53.6931 62.454 54.5972 62.4895 55.1751 62.5827C55.7367 62.6732 55.4715 62.7438 55.1685 62.3939C54.9085 62.0936 55.0134 61.92 55.0755 62.612C55.1359 63.2852 55.1224 64.2279 55.0936 65.7687L61.0926 65.8808C61.1188 64.4758 61.1478 63.1493 61.0514 62.0758C60.9568 61.0209 60.7058 59.6228 59.7044 58.4663C58.6599 57.2601 57.2676 56.8426 56.1302 56.6592C55.009 56.4784 53.6419 56.454 52.1526 56.454V62.454ZM77.0179 73.1737C80.0397 73.0438 84.5013 72.0182 88.2925 69.2748C92.2217 66.4316 95.3207 61.8008 95.3207 54.9254H89.3207C89.3207 59.7203 87.2758 62.6045 84.7752 64.414C82.1366 66.3233 78.8824 67.088 76.7603 67.1792L77.0179 73.1737ZM58.14 51.0246C56.9942 64.5229 68.0563 73.1764 76.8891 73.1764V67.1764C71.2754 67.1764 63.2943 61.2419 64.1185 51.5321L58.14 51.0246ZM78.4767 34.0345C75.9608 33.8036 71.3207 34.6609 67.169 37.0831C62.8682 39.5923 58.7358 44.0052 58.14 51.0246L64.1185 51.5321C64.5076 46.9475 67.106 44.0664 70.1927 42.2655C73.4285 40.3777 76.8324 39.9088 77.9282 40.0094L78.4767 34.0345ZM95.3207 54.9254C95.3207 46.8145 92.3541 41.5609 88.5565 38.3397C84.8828 35.2235 80.7097 34.2395 78.4767 34.0345L77.9282 40.0094C79.3068 40.136 82.1929 40.8097 84.6754 42.9153C87.034 44.916 89.3207 48.4483 89.3207 54.9254H95.3207ZM77.012 55.8723C76.5417 55.8862 76.3694 55.8235 76.3063 55.796C76.2475 55.7704 76.0717 55.6839 75.7516 55.3042L71.1641 59.1713C71.9122 60.0589 72.7958 60.8114 73.9103 61.2969C75.0205 61.7804 76.1352 61.9007 77.1884 61.8697L77.012 55.8723ZM78.8869 51.6935C79.1671 52.2679 79.1735 53.3185 78.5724 54.4338C77.9413 55.6045 77.2015 55.8667 77.012 55.8723L77.1884 61.8697C80.3383 61.7771 82.6656 59.4854 83.854 57.2806C85.0723 55.0203 85.6506 51.8737 84.2794 49.0629L78.8869 51.6935ZM76.263 51.0122C77.0389 50.3399 78.2835 50.4567 78.8869 51.6935L84.2794 49.0629C82.0184 44.4281 76.2081 43.1205 72.3338 46.4778L76.263 51.0122ZM75.7516 55.3042C75.389 54.8741 75.1408 54.1239 75.2455 53.1739C75.3507 52.2192 75.7764 51.4339 76.263 51.0122L72.3338 46.4778C70.522 48.0477 69.5238 50.3182 69.2816 52.5167C69.0388 54.7199 69.5194 57.2202 71.1641 59.1713L75.7516 55.3042ZM129.526 15.0556C128.331 13.5356 126.131 13.2715 124.611 14.4657L128.318 19.1837C127.232 20.0367 125.661 19.8481 124.808 18.7623L129.526 15.0556ZM133.928 22.4384C132.651 19.4639 130.83 16.7161 129.526 15.0556L124.808 18.7624C125.87 20.1146 127.389 22.416 128.415 24.8051L133.928 22.4384ZM128.273 22.4539C128.237 22.7624 128.207 23.0697 128.182 23.3697L134.161 23.8738C134.182 23.6279 134.206 23.3822 134.233 23.1413L128.273 22.4539ZM128.635 20.2866C128.469 20.9978 128.354 21.7523 128.273 22.4538L134.233 23.1414C134.299 22.5761 134.381 22.0664 134.477 21.6557L128.635 20.2866ZM129.514 17.9694C129.042 18.7558 128.788 19.6352 128.635 20.2866L134.477 21.6557C134.524 21.4543 134.57 21.2969 134.611 21.1805C134.655 21.0581 134.676 21.0275 134.659 21.0563L129.514 17.9694ZM134.316 16.7688C132.658 15.7743 130.509 16.3119 129.514 17.9694L134.659 21.0563C133.949 22.2402 132.413 22.6242 131.229 21.9139L134.316 16.7688ZM135.517 21.5707C136.511 19.9132 135.974 17.7633 134.316 16.7688L131.229 21.9139C130.045 21.2035 129.661 19.6678 130.372 18.484L135.517 21.5707ZM135.451 21.8839C135.493 21.7038 135.53 21.5829 135.554 21.513C135.566 21.4794 135.572 21.4674 135.569 21.4731C135.567 21.4775 135.551 21.5133 135.517 21.5707L130.372 18.484C129.98 19.1375 129.753 19.8978 129.609 20.5148L135.451 21.8839ZM135.227 23.256C135.289 22.7133 135.366 22.2445 135.451 21.8839L129.609 20.5148C129.454 21.176 129.345 21.8897 129.266 22.5685L135.227 23.256ZM135.059 26.1312C135.061 25.4258 135.105 24.3105 135.227 23.2561L129.266 22.5684C129.114 23.8889 129.062 25.2325 129.059 26.1116L135.059 26.1312ZM135.21 26.4101C135.136 26.0462 135.05 25.6862 134.953 25.3317L129.164 26.9111C129.229 27.1495 129.285 27.3814 129.331 27.606L135.21 26.4101ZM134.765 32.6578C135.69 30.5441 135.593 28.2893 135.21 26.41L129.331 27.606C129.586 28.8605 129.502 29.7179 129.268 30.253L134.765 32.6578ZM134.193 36.607C134.525 36.9867 133.401 35.7767 134.765 32.6578L129.268 30.253C127.18 35.0263 128.164 38.8286 129.677 40.5578L134.193 36.607ZM133.863 41.5457C135.318 40.2729 135.465 38.0617 134.193 36.6069L129.677 40.5579C128.768 39.5187 128.873 37.9393 129.912 37.0301L133.863 41.5457ZM128.924 41.2162C130.197 42.6711 132.408 42.8185 133.863 41.5457L129.912 37.0301C130.951 36.121 132.531 36.2262 133.44 37.2655L128.924 41.2162ZM128.352 29.8522C126.146 34.8957 127.101 39.1318 128.924 41.2163L133.44 37.2654C133.467 37.2964 132.362 35.6555 133.849 32.257L128.352 29.8522ZM128.357 27.8343C128.583 28.9669 128.47 29.5828 128.352 29.8522L133.849 32.257C134.651 30.4226 134.592 28.4203 134.24 26.6586L128.357 27.8343ZM127.064 27.7243C127.676 27.6733 127.992 27.8406 128.17 27.9714C128.279 28.0519 128.367 28.1449 128.433 28.2319C128.504 28.3263 128.518 28.3747 128.502 28.3319L134.095 26.1611C133.399 24.3674 130.995 21.376 126.566 21.7451L127.064 27.7243ZM123.286 24.5271C123.446 26.4535 125.138 27.8849 127.064 27.7243L126.566 21.7451C127.942 21.6304 129.15 22.6528 129.265 24.0288L123.286 24.5271ZM126.483 20.7485C124.556 20.9091 123.125 22.6008 123.286 24.5271L129.265 24.0288C129.379 25.4048 128.357 26.6131 126.981 26.7278L126.483 20.7485ZM132.35 22.3567C130.894 21.2703 128.914 20.5459 126.483 20.7485L126.981 26.7278C127.87 26.6537 128.411 26.904 128.762 27.1658L132.35 22.3567ZM124.021 19.3802C125.162 20.8326 126.803 23.3624 127.757 25.8395L133.356 23.6829C132.127 20.4932 130.131 17.4445 128.739 15.6734L124.021 19.3802ZM124.611 14.4657C123.091 15.6599 122.827 17.8602 124.021 19.3802L128.739 15.6734C129.592 16.7591 129.404 18.3307 128.318 19.1837L124.611 14.4657ZM117.716 9.78001C117.699 9.76829 117.689 9.76083 117.687 9.75938C117.685 9.75779 117.688 9.75994 117.696 9.76686C117.715 9.78161 117.745 9.8072 117.792 9.84786L121.742 5.33149C121.583 5.19287 121.355 4.99971 121.1 4.82546L117.716 9.78001ZM117.992 9.9327C117.91 9.89553 117.847 9.86061 117.804 9.83572C117.762 9.81058 117.731 9.79024 117.716 9.78L121.1 4.82546C120.974 4.7392 120.754 4.59673 120.468 4.46748L117.992 9.9327ZM119.117 10.1327C118.527 10.171 118.101 9.98205 117.992 9.93276L120.468 4.46741C120.249 4.36815 119.598 4.08882 118.728 4.14532L119.117 10.1327ZM121.128 8.82712C120.71 9.62083 119.922 10.0804 119.117 10.1327L118.728 4.14532C117.555 4.22148 116.423 4.8859 115.819 6.03147L121.128 8.82712ZM121.404 7.60913C121.41 7.74089 121.43 8.25436 121.128 8.82701L115.819 6.03157C115.378 6.87011 115.399 7.64223 115.41 7.89381L121.404 7.60913ZM121.345 7.21162C121.337 7.18892 121.346 7.21335 121.357 7.26228C121.368 7.3058 121.395 7.43047 121.404 7.60889L115.41 7.89405C115.437 8.45442 115.592 8.92313 115.635 9.05459L121.345 7.21162ZM121.629 7.94402C121.457 7.51713 121.378 7.31472 121.345 7.21169L115.635 9.05453C115.748 9.40703 115.927 9.84563 116.062 10.1815L121.629 7.94402ZM121.621 7.92442L121.621 7.92409L116.07 10.2014L116.07 10.2018L121.621 7.92442ZM121.658 8.0155L121.629 7.94444L116.062 10.1817L116.09 10.2528L121.658 8.0155ZM122.286 9.63753C122.048 8.99028 121.829 8.44123 121.658 8.01583L116.09 10.2525C116.258 10.6707 116.449 11.1493 116.654 11.7066L122.286 9.63753ZM124.49 21.6842C124.49 16.4229 123.241 12.2362 122.286 9.63754L116.654 11.7066C117.468 13.9226 118.49 17.3757 118.49 21.6842H124.49ZM126.571 27.0028C125.301 25.2391 124.49 23.1952 124.49 21.6842H118.49C118.49 24.9283 120.034 28.192 121.701 30.5084L126.571 27.0028ZM128.375 28.9567C127.823 28.5253 127.183 27.8539 126.571 27.0028L121.701 30.5084C122.566 31.7095 123.584 32.8273 124.678 33.6829L128.375 28.9567ZM129.008 29.393C129.146 29.393 129.154 29.4277 129.004 29.3598C128.859 29.294 128.645 29.1678 128.375 28.9567L124.678 33.6829C125.662 34.452 127.192 35.393 129.008 35.393V29.393ZM126.508 31.893C126.508 30.5123 127.627 29.393 129.008 29.393V35.393C130.941 35.393 132.508 33.826 132.508 31.893H126.508ZM129.008 34.393C127.627 34.393 126.508 33.2737 126.508 31.893H132.508C132.508 29.96 130.941 28.393 129.008 28.393V34.393ZM125.295 32.8952C126.219 33.6183 127.528 34.393 129.008 34.393V28.393C129.18 28.393 129.301 28.4176 129.359 28.4323C129.418 28.4473 129.438 28.4585 129.416 28.4487C129.396 28.4394 129.347 28.4155 129.272 28.3686C129.198 28.322 129.103 28.257 128.991 28.169L125.295 32.8952ZM122.513 29.9241C123.336 31.0669 124.291 32.1103 125.294 32.8952L128.991 28.169C128.53 27.8083 127.953 27.2113 127.382 26.4185L122.513 29.9241ZM119.49 21.6842C119.49 24.6392 120.911 27.6996 122.513 29.9242L127.382 26.4185C126.179 24.7474 125.49 22.9067 125.49 21.6842H119.49ZM117.593 11.3618C118.43 13.6415 119.49 17.2169 119.49 21.6842H125.49C125.49 16.2641 124.203 11.9551 123.225 9.29269L117.593 11.3618ZM117.092 10.0638C117.243 10.4404 117.413 10.8718 117.593 11.3618L123.225 9.29268C123.016 8.72446 122.822 8.2325 122.662 7.83403L117.092 10.0638ZM129.409 9.97232C126.492 9.03559 123.454 7.82587 121.629 6.51332L118.126 11.3846C120.776 13.2904 124.603 14.7309 127.574 15.6849L129.409 9.97232ZM133.561 11.1675C132.482 10.8903 131.005 10.485 129.409 9.97232L127.574 15.6849C129.312 16.2433 130.908 16.6808 132.068 16.9788L133.561 11.1675ZM134.835 11.482C134.536 11.4115 134.099 11.3058 133.561 11.1675L132.068 16.9788C132.649 17.1281 133.125 17.2434 133.459 17.322L134.835 11.482ZM135.176 11.5611C135.1 11.5438 134.985 11.5173 134.835 11.4821L133.459 17.322C133.625 17.3614 133.757 17.3916 133.849 17.4125L135.176 11.5611ZM135.267 11.5816L135.171 11.5599L133.854 17.4137L133.951 17.4353L135.267 11.5816ZM135.284 11.5852L135.259 11.5796L133.959 17.4373L133.984 17.4428L135.284 11.5852ZM135.286 11.5857L135.28 11.5843L133.988 17.4437L133.995 17.4451L135.286 11.5857ZM135.283 11.585L135.281 11.5846L134 17.4463L134.002 17.4467L135.283 11.585ZM135.295 11.5876L135.294 11.5875L133.99 17.4441L133.991 17.4442L135.295 11.5876ZM131.819 13.3862C131.766 13.6306 131.739 13.7517 131.726 13.8115C131.723 13.8263 131.72 13.8369 131.719 13.8445C131.718 13.8482 131.717 13.8509 131.717 13.8529C131.717 13.855 131.716 13.8558 131.716 13.8557C131.716 13.8557 131.716 13.8552 131.717 13.8544C131.717 13.8537 131.717 13.8523 131.718 13.8504C131.718 13.8485 131.72 13.8381 131.724 13.8244C131.725 13.8177 131.729 13.8033 131.733 13.7852C131.736 13.7732 131.747 13.7285 131.764 13.6719C131.772 13.6439 131.789 13.5867 131.814 13.5154C131.832 13.465 131.892 13.2979 131.999 13.0982C132.054 12.9954 132.397 12.3256 133.201 11.8851C133.683 11.6211 134.189 11.5141 134.654 11.516C134.861 11.5168 135.029 11.539 135.133 11.5563C135.173 11.5632 135.234 11.5747 135.254 11.5788C135.273 11.583 135.293 11.5874 135.294 11.5874L133.992 17.4445C133.992 17.4445 134.012 17.4489 134.032 17.4531C134.052 17.4572 134.112 17.4686 134.152 17.4756C134.257 17.4929 134.424 17.5151 134.631 17.5159C135.096 17.5177 135.603 17.4107 136.085 17.1467C136.888 16.7063 137.232 16.0365 137.287 15.9336C137.394 15.7339 137.453 15.5668 137.471 15.5163C137.496 15.4451 137.513 15.3878 137.522 15.3598C137.538 15.303 137.55 15.2581 137.553 15.2459C137.557 15.2274 137.561 15.2128 137.562 15.2055C137.568 15.1826 137.572 15.162 137.573 15.1609C137.576 15.1479 137.58 15.1282 137.586 15.0983C137.6 15.0361 137.627 14.9129 137.681 14.6689L131.819 13.3862ZM137.574 15.1574L137.681 14.6689L131.819 13.3862L131.712 13.8747L137.574 15.1574ZM135.239 11.5758L135.231 11.5742L134.055 17.4579L134.063 17.4595L135.239 11.5758ZM135.263 11.5807L135.263 11.5807L134.039 17.4546L134.039 17.4546L135.263 11.5807ZM135.24 11.576L135.239 11.5759L134.063 17.4594L134.063 17.4595L135.24 11.576ZM135.245 11.5771L135.245 11.5771L134.058 17.4584L134.058 17.4584L135.245 11.5771ZM135.238 11.5756L135.238 11.5756L134.065 17.46L134.066 17.46L135.238 11.5756ZM135.312 11.5914L135.312 11.5913L133.992 17.4443L133.992 17.4444L135.312 11.5914ZM135.29 11.5865L135.281 11.5846L134.023 17.4512L134.032 17.4531L135.29 11.5865ZM135.344 11.5984C135.329 11.595 135.315 11.5919 135.302 11.5891L134.02 17.4505C134.015 17.4495 134.012 17.4487 134.01 17.4482L135.344 11.5984ZM135.401 11.6118C135.38 11.6068 135.361 11.6023 135.344 11.5984L134.01 17.4483C134.007 17.4476 134.005 17.4472 134.004 17.447L135.401 11.6118ZM135.701 11.6915C135.581 11.6567 135.479 11.6305 135.401 11.6118L134.004 17.4469C134.001 17.4462 134.01 17.4484 134.028 17.4535L135.701 11.6915ZM136.622 12.0308C136.264 11.8681 135.935 11.7595 135.701 11.6915L134.028 17.4535C134.046 17.4588 134.068 17.4656 134.09 17.4736C134.113 17.4818 134.129 17.4887 134.139 17.4929L136.622 12.0308ZM139.036 14.5131C138.759 13.682 138.237 13.1235 137.846 12.7927C137.439 12.448 137.003 12.204 136.622 12.0308L134.139 17.4929C134.173 17.5086 134.097 17.4806 133.969 17.3716C133.856 17.2766 133.531 16.9736 133.343 16.4104L139.036 14.5131ZM135.873 12.9319C137.183 12.4953 138.599 13.2032 139.036 14.5132L133.343 16.4103C133.955 18.2442 135.937 19.2353 137.771 18.6241L135.873 12.9319ZM134.292 16.0942C133.856 14.7843 134.564 13.3685 135.873 12.9319L137.771 18.6241C139.604 18.0128 140.596 16.0307 139.984 14.1968L134.292 16.0942ZM134.553 16.5826C134.641 16.6226 134.652 16.6396 134.616 16.6092C134.573 16.5733 134.398 16.4109 134.292 16.0942L139.984 14.1969C139.333 12.2434 137.635 11.3931 137.036 11.1205L134.553 16.5826ZM134.307 16.4932C134.382 16.5149 134.472 16.5459 134.553 16.5826L137.036 11.1205C136.622 10.9325 136.246 10.8084 135.98 10.7312L134.307 16.4932ZM134.237 16.4744C134.247 16.4769 134.272 16.4831 134.307 16.4932L135.98 10.7311C135.843 10.6914 135.725 10.6612 135.634 10.6394L134.237 16.4744ZM134.234 16.4738C134.23 16.4729 134.232 16.4731 134.237 16.4745L135.634 10.6392C135.588 10.6284 135.549 10.6193 135.515 10.612L134.234 16.4738ZM134.229 16.4726L134.247 16.4764L135.503 10.6094L135.485 10.6055L134.229 16.4726ZM134.244 16.4759L134.247 16.4765L135.466 10.6017L135.464 10.6011L134.244 16.4759ZM134.205 16.4673L134.209 16.4683L135.499 10.6086L135.495 10.6077L134.205 16.4673ZM134.177 16.4612L134.2 16.4663L135.499 10.6087L135.476 10.6035L134.177 16.4612ZM134.075 16.4384L134.168 16.4592L135.485 10.6055L135.392 10.5847L134.075 16.4384ZM133.688 16.3487C133.852 16.3874 133.981 16.417 134.07 16.4372L135.398 10.5859C135.324 10.5691 135.211 10.5433 135.064 10.5087L133.688 16.3487ZM132.317 16.0102C132.891 16.1577 133.36 16.2714 133.688 16.3487L135.064 10.5087C134.771 10.4395 134.341 10.3354 133.81 10.1989L132.317 16.0102ZM127.88 14.7328C129.594 15.2836 131.17 15.7158 132.317 16.0102L133.81 10.1989C132.744 9.92523 131.287 9.52533 129.714 9.02022L127.88 14.7328ZM117.792 9.8479C119.109 11.0001 120.849 11.9492 122.544 12.716C124.278 13.5009 126.156 14.1791 127.88 14.7328L129.714 9.02022C128.122 8.5087 126.475 7.90927 125.018 7.24986C123.521 6.5724 122.404 5.91071 121.742 5.33145L117.792 9.8479Z" fill="#48D9A4" mask="url(#path-1-outside-1_290_214)"/>
</svg>
