<svg width="28" height="28" viewBox="0 0 28 28" fill="none" xmlns="http://www.w3.org/2000/svg">
<path d="M17.3549 10.6466L17.3534 10.6451C16.9766 10.269 16.8056 9.85436 16.8056 9.33333V3.11111C16.8056 2.59003 16.9767 2.17445 17.3541 1.79699C17.7301 1.42103 18.145 1.25 18.6667 1.25H24.8889C25.4103 1.25 25.8258 1.42084 26.2029 1.7969C26.5791 2.17401 26.75 2.58964 26.75 3.11111V9.33333C26.75 9.85505 26.579 10.2699 26.203 10.6459C25.8256 11.0233 25.41 11.1944 24.8889 11.1944H18.6667C18.1456 11.1944 17.731 11.0234 17.3549 10.6466ZM11.1944 9.33333C11.1944 9.85505 11.0234 10.2699 10.6475 10.6459C10.27 11.0233 9.85442 11.1944 9.33333 11.1944H3.11111C2.59003 11.1944 2.17445 11.0233 1.79699 10.6459C1.42103 10.2699 1.25 9.85505 1.25 9.33333V3.11111C1.25 2.58969 1.42087 2.17408 1.79699 1.79699C2.17408 1.42087 2.58969 1.25 3.11111 1.25H9.33333C9.85472 1.25 10.2703 1.42084 10.6474 1.7969C11.0235 2.17401 11.1944 2.58964 11.1944 3.11111V9.33333ZM16.8056 18.6667C16.8056 18.1456 16.9767 17.73 17.3541 17.3526C17.7301 16.9766 18.145 16.8056 18.6667 16.8056H24.8889C25.4103 16.8056 25.8259 16.9764 26.203 17.3526C26.5791 17.7296 26.75 18.1452 26.75 18.6667V24.8889C26.75 25.4103 26.5791 25.8259 26.203 26.203C25.8259 26.5791 25.4103 26.75 24.8889 26.75H18.6667C18.145 26.75 17.7301 26.579 17.3541 26.203C16.9767 25.8256 16.8056 25.41 16.8056 24.8889V18.6667ZM9.33333 16.8056C9.85476 16.8056 10.2704 16.9764 10.6474 17.3526C11.0236 17.7296 11.1944 18.1452 11.1944 18.6667V24.8889C11.1944 25.4103 11.0236 25.8259 10.6475 26.203C10.2704 26.5791 9.85476 26.75 9.33333 26.75H3.11111C2.58964 26.75 2.17401 26.5791 1.7969 26.2029C1.42084 25.8258 1.25 25.4103 1.25 24.8889V18.6667C1.25 18.1453 1.42085 17.7297 1.79691 17.3526C2.17402 16.9764 2.58964 16.8056 3.11111 16.8056H9.33333Z" stroke="black" stroke-width="2.5"/>
</svg>
