<svg width="16" height="46" viewBox="0 0 16 46" fill="none" xmlns="http://www.w3.org/2000/svg">
<path d="M13.4444 13.5714C11.8889 10.35 11.5 8.85714 11.5 5.71429V5.20357C11.7333 5.06607 11.8889 4.81071 11.8889 4.53571C11.8889 4.10357 11.5389 3.75 11.1111 3.75H10.7222H5.27778H4.88889C4.46111 3.75 4.11111 4.10357 4.11111 4.53571C4.11111 4.83036 4.26667 5.08571 4.5 5.20357V5.71429C4.5 8.85714 4.11111 10.35 2.55556 13.5714C1 16.7929 1 19.8571 1 19.8571V40.2857C1 42.8982 3.08056 45 5.66667 45H10.3333C12.9194 45 15 42.8982 15 40.2857V19.8571C15 19.8571 15 16.7929 13.4444 13.5714ZM13.4444 40.2857C13.4444 42.0143 12.0444 43.4286 10.3333 43.4286H5.66667C3.95556 43.4286 2.55556 42.0143 2.55556 40.2857V19.8571C2.55556 19.8375 2.575 17.1268 3.95556 14.2589C5.62778 10.8018 6.05556 9.03393 6.05556 5.71429V5.32143H9.94444V5.71429C9.94444 9.03393 10.3722 10.8018 12.0444 14.2589C13.4056 17.0875 13.4444 19.8375 13.4444 19.8571V40.2857Z" fill="black" stroke="black" stroke-width="0.5"/>
<path d="M4.11116 3.35714H11.8889C12.1028 3.35714 12.2778 3.2 12.2778 2.98393V1.74643C12.2778 1.55 12.1417 1.39286 11.9473 1.35357C11.3056 1.23571 9.76949 1 8.00005 1C6.2306 1 4.69449 1.23571 4.05282 1.35357C3.85838 1.39286 3.74171 1.55 3.74171 1.74643V2.98393C3.72227 3.2 3.89727 3.35714 4.11116 3.35714ZM10.7223 2.08036C10.7223 1.92321 10.8584 1.78571 11.0139 1.78571H11.2084C11.3639 1.78571 11.5 1.92321 11.5 2.08036V2.27679C11.5 2.43393 11.3639 2.57143 11.2084 2.57143H11.0139C10.8584 2.57143 10.7223 2.43393 10.7223 2.27679V2.08036ZM9.16671 2.08036C9.16671 1.92321 9.30283 1.78571 9.45838 1.78571H9.65282C9.80838 1.78571 9.94449 1.92321 9.94449 2.08036V2.27679C9.94449 2.43393 9.80838 2.57143 9.65282 2.57143H9.45838C9.30283 2.57143 9.16671 2.43393 9.16671 2.27679V2.08036ZM7.61116 2.08036C7.61116 1.92321 7.74727 1.78571 7.90282 1.78571H8.09727C8.25282 1.78571 8.38894 1.92321 8.38894 2.08036V2.27679C8.38894 2.43393 8.25282 2.57143 8.09727 2.57143H7.90282C7.74727 2.57143 7.61116 2.43393 7.61116 2.27679V2.08036ZM6.0556 2.08036C6.0556 1.92321 6.19171 1.78571 6.34727 1.78571H6.54171C6.69727 1.78571 6.83338 1.92321 6.83338 2.08036V2.27679C6.83338 2.43393 6.69727 2.57143 6.54171 2.57143H6.34727C6.19171 2.57143 6.0556 2.43393 6.0556 2.27679V2.08036ZM4.50005 2.08036C4.50005 1.92321 4.63616 1.78571 4.79171 1.78571H4.98616C5.14171 1.78571 5.27782 1.92321 5.27782 2.08036V2.27679C5.27782 2.43393 5.14171 2.57143 4.98616 2.57143H4.79171C4.63616 2.57143 4.50005 2.43393 4.50005 2.27679V2.08036Z" fill="black"/>
<path d="M4.50005 2.08036C4.50005 1.92321 4.63616 1.78571 4.79171 1.78571H4.98616C5.14171 1.78571 5.27782 1.92321 5.27782 2.08036V2.27679C5.27782 2.43393 5.14171 2.57143 4.98616 2.57143H4.79171C4.63616 2.57143 4.50005 2.43393 4.50005 2.27679V2.08036Z" fill="black"/>
<path d="M6.0556 2.08036C6.0556 1.92321 6.19171 1.78571 6.34727 1.78571H6.54171C6.69727 1.78571 6.83338 1.92321 6.83338 2.08036V2.27679C6.83338 2.43393 6.69727 2.57143 6.54171 2.57143H6.34727C6.19171 2.57143 6.0556 2.43393 6.0556 2.27679V2.08036Z" fill="black"/>
<path d="M7.61116 2.08036C7.61116 1.92321 7.74727 1.78571 7.90282 1.78571H8.09727C8.25282 1.78571 8.38894 1.92321 8.38894 2.08036V2.27679C8.38894 2.43393 8.25282 2.57143 8.09727 2.57143H7.90282C7.74727 2.57143 7.61116 2.43393 7.61116 2.27679V2.08036Z" fill="black"/>
<path d="M9.16671 2.08036C9.16671 1.92321 9.30283 1.78571 9.45838 1.78571H9.65282C9.80838 1.78571 9.94449 1.92321 9.94449 2.08036V2.27679C9.94449 2.43393 9.80838 2.57143 9.65282 2.57143H9.45838C9.30283 2.57143 9.16671 2.43393 9.16671 2.27679V2.08036Z" fill="black"/>
<path d="M10.7223 2.08036C10.7223 1.92321 10.8584 1.78571 11.0139 1.78571H11.2084C11.3639 1.78571 11.5 1.92321 11.5 2.08036V2.27679C11.5 2.43393 11.3639 2.57143 11.2084 2.57143H11.0139C10.8584 2.57143 10.7223 2.43393 10.7223 2.27679V2.08036Z" fill="black"/>
<path d="M4.11116 3.35714H11.8889C12.1028 3.35714 12.2778 3.2 12.2778 2.98393V1.74643C12.2778 1.55 12.1417 1.39286 11.9473 1.35357C11.3056 1.23571 9.76949 1 8.00005 1C6.2306 1 4.69449 1.23571 4.05282 1.35357C3.85838 1.39286 3.74171 1.55 3.74171 1.74643V2.98393C3.72227 3.2 3.89727 3.35714 4.11116 3.35714ZM10.7223 2.08036C10.7223 1.92321 10.8584 1.78571 11.0139 1.78571H11.2084C11.3639 1.78571 11.5 1.92321 11.5 2.08036V2.27679C11.5 2.43393 11.3639 2.57143 11.2084 2.57143H11.0139C10.8584 2.57143 10.7223 2.43393 10.7223 2.27679V2.08036ZM9.16671 2.08036C9.16671 1.92321 9.30283 1.78571 9.45838 1.78571H9.65282C9.80838 1.78571 9.94449 1.92321 9.94449 2.08036V2.27679C9.94449 2.43393 9.80838 2.57143 9.65282 2.57143H9.45838C9.30283 2.57143 9.16671 2.43393 9.16671 2.27679V2.08036ZM7.61116 2.08036C7.61116 1.92321 7.74727 1.78571 7.90282 1.78571H8.09727C8.25282 1.78571 8.38894 1.92321 8.38894 2.08036V2.27679C8.38894 2.43393 8.25282 2.57143 8.09727 2.57143H7.90282C7.74727 2.57143 7.61116 2.43393 7.61116 2.27679V2.08036ZM6.0556 2.08036C6.0556 1.92321 6.19171 1.78571 6.34727 1.78571H6.54171C6.69727 1.78571 6.83338 1.92321 6.83338 2.08036V2.27679C6.83338 2.43393 6.69727 2.57143 6.54171 2.57143H6.34727C6.19171 2.57143 6.0556 2.43393 6.0556 2.27679V2.08036ZM4.50005 2.08036C4.50005 1.92321 4.63616 1.78571 4.79171 1.78571H4.98616C5.14171 1.78571 5.27782 1.92321 5.27782 2.08036V2.27679C5.27782 2.43393 5.14171 2.57143 4.98616 2.57143H4.79171C4.63616 2.57143 4.50005 2.43393 4.50005 2.27679V2.08036Z" stroke="black" stroke-width="0.5"/>
<path d="M4.50005 2.08036C4.50005 1.92321 4.63616 1.78571 4.79171 1.78571H4.98616C5.14171 1.78571 5.27782 1.92321 5.27782 2.08036V2.27679C5.27782 2.43393 5.14171 2.57143 4.98616 2.57143H4.79171C4.63616 2.57143 4.50005 2.43393 4.50005 2.27679V2.08036Z" stroke="black" stroke-width="0.5"/>
<path d="M6.0556 2.08036C6.0556 1.92321 6.19171 1.78571 6.34727 1.78571H6.54171C6.69727 1.78571 6.83338 1.92321 6.83338 2.08036V2.27679C6.83338 2.43393 6.69727 2.57143 6.54171 2.57143H6.34727C6.19171 2.57143 6.0556 2.43393 6.0556 2.27679V2.08036Z" stroke="black" stroke-width="0.5"/>
<path d="M7.61116 2.08036C7.61116 1.92321 7.74727 1.78571 7.90282 1.78571H8.09727C8.25282 1.78571 8.38894 1.92321 8.38894 2.08036V2.27679C8.38894 2.43393 8.25282 2.57143 8.09727 2.57143H7.90282C7.74727 2.57143 7.61116 2.43393 7.61116 2.27679V2.08036Z" stroke="black" stroke-width="0.5"/>
<path d="M9.16671 2.08036C9.16671 1.92321 9.30283 1.78571 9.45838 1.78571H9.65282C9.80838 1.78571 9.94449 1.92321 9.94449 2.08036V2.27679C9.94449 2.43393 9.80838 2.57143 9.65282 2.57143H9.45838C9.30283 2.57143 9.16671 2.43393 9.16671 2.27679V2.08036Z" stroke="black" stroke-width="0.5"/>
<path d="M10.7223 2.08036C10.7223 1.92321 10.8584 1.78571 11.0139 1.78571H11.2084C11.3639 1.78571 11.5 1.92321 11.5 2.08036V2.27679C11.5 2.43393 11.3639 2.57143 11.2084 2.57143H11.0139C10.8584 2.57143 10.7223 2.43393 10.7223 2.27679V2.08036Z" stroke="black" stroke-width="0.5"/>
</svg>
