<svg width="93" height="119" viewBox="0 0 93 119" fill="none" xmlns="http://www.w3.org/2000/svg">
<path d="M37.3541 79.7048L59.3541 57.7048C62.0208 53.8714 66.1541 44.5048 61.3541 37.7048C56.5541 30.9048 50.8678 28 44.8541 28.7048C38.8405 29.4095 31.5541 34.3048 30.3541 44.7048C29.1541 55.1048 38.5208 63.7048 43.3541 66.7048C43.8541 67.2047 40.1056 72.0096 39.5 73C38.8944 73.9904 35.4263 77.7319 34.5 79.7048C33.5737 81.6776 42.1541 85.1046 45.3541 84.7046C49.3541 84.2046 55.8541 77.2046 56.3541 77.2046C56.7541 77.2046 64.5 86.1667 69.5 91.5C70.4375 92.5 71.5541 96.5046 70.3541 97.7046C69.1541 98.9046 66.5207 98.2046 65.3541 97.7046C63.6874 96.2046 59.7541 93.0046 57.3541 92.2046C54.9541 91.4046 57.3541 93.8713 58.8541 95.2046C60.5208 96.5379 63.8218 99.895 64.8541 102.205C66.5599 106.021 63.9784 107.775 61.8541 107.205C60.8294 107.189 59.3262 106.458 57.8541 105.705C55.5 104.5 54.5 102.5 53.434 102.409C52.368 102.318 51.368 102.909 51.934 104.205C52.5 105.5 54.5 109.5 54.5 109.5C54.5 109.5 55.5048 112.341 54.3541 113.705C52.0736 116.406 49.1459 114.5 49 113.705C48.8541 112.909 49.6191 107.377 49 106.5C48.5388 105.846 48.1459 104.295 47 104C46.6459 103.795 44.5541 103.205 43.3541 103.205C42.1541 103.205 41.5208 102.205 41.3541 101.705C40.9541 98.1046 36.3541 95.2046 35.3541 94.7046C34.3541 94.2046 36.3541 89.7046 32.8541 86.2048C29.3541 82.7049 24.854 84.8715 21.854 86.2048C16.1873 82.0381 4.79998 70.0031 1.85397 55.7048C-1.44112 39.7122 5.52872 23.2717 10.354 18.7048C14.0207 13.3714 24.9541 2.40477 39.3541 1.20477C53.7541 0.00476623 65.6874 4.37143 69.8541 6.70477C75.0207 9.53804 86.2541 18.4046 89.8541 31.2046C93.4541 44.0046 91.3672 59.1667 89.8672 65C89.8672 65 88.6974 70.5312 84.3672 76.5C81.0378 81.0892 75.5 86.5 73.5 85.5C71.5 84.5 62.7553 78.6987 57.3541 72.2046C54.3116 75.5872 52.4838 77.2844 48.8541 79.7048C45.8541 81.0382 39.3542 82.9049 37.3541 79.7048Z" fill="#A9A9A9"/>
<path d="M21.3541 97.2046C20.4743 96.337 20.3541 95.7046 20.8672 94C21.3803 92.2954 23.3586 89.5235 26.3672 88C29.0849 86.6238 30.8541 88.7046 31.3541 89.7046C31.6874 90.3713 31.7541 91.8 31.3541 93C30.9541 94.2 29.2005 95.6667 28.3672 96.5C27.2005 97.1667 25.8541 98.2046 24.3541 98.2046C22.8541 98.2046 22.2339 98.0722 21.3541 97.2046Z" fill="#A9A9A9"/>
<path d="M21.3541 97.2046C20.4743 96.337 20.3541 95.7046 20.8672 94C21.3803 92.2954 23.3586 89.5235 26.3672 88C29.0849 86.6238 30.8541 88.7046 31.3541 89.7046C31.6874 90.3713 31.7541 91.8 31.3541 93C30.9541 94.2 29.2005 95.6667 28.3672 96.5C27.2005 97.1667 25.8541 98.2046 24.3541 98.2046C22.8541 98.2046 22.2339 98.0722 21.3541 97.2046Z" fill="#A9A9A9"/>
<path d="M27.7252 108.409C26.8454 107.542 26.7252 106.909 27.2383 105.205C27.7514 103.5 29.7297 100.728 32.7383 99.2046C35.456 97.8284 37.2252 99.9092 37.7252 100.909C38.0585 101.576 38.1252 103.005 37.7252 104.205C37.3252 105.405 35.5716 106.871 34.7383 107.705C33.5716 108.371 32.2252 109.409 30.7252 109.409C29.2252 109.409 28.605 109.277 27.7252 108.409Z" fill="#A9A9A9"/>
<path d="M27.7252 108.409C26.8454 107.542 26.7252 106.909 27.2383 105.205C27.7514 103.5 29.7297 100.728 32.7383 99.2046C35.456 97.8284 37.2252 99.9092 37.7252 100.909C38.0585 101.576 38.1252 103.005 37.7252 104.205C37.3252 105.405 35.5716 106.871 34.7383 107.705C33.5716 108.371 32.2252 109.409 30.7252 109.409C29.2252 109.409 28.605 109.277 27.7252 108.409Z" fill="#A9A9A9"/>
<path d="M35.5 116.705C34.6202 115.837 34.5 115.205 35.0131 113.5C35.5262 111.795 37.5045 109.023 40.5131 107.5C43.2308 106.124 45 108.205 45.5 109.205C45.8333 109.871 45.9 111.3 45.5 112.5C45.1 113.7 43.3464 115.167 42.5131 116C41.3464 116.667 40 117.705 38.5 117.705C37 117.705 36.3798 117.572 35.5 116.705Z" fill="#A9A9A9"/>
<path d="M35.5 116.705C34.6202 115.837 34.5 115.205 35.0131 113.5C35.5262 111.795 37.5045 109.023 40.5131 107.5C43.2308 106.124 45 108.205 45.5 109.205C45.8333 109.871 45.9 111.3 45.5 112.5C45.1 113.7 43.3464 115.167 42.5131 116C41.3464 116.667 40 117.705 38.5 117.705C37 117.705 36.3798 117.572 35.5 116.705Z" fill="#A9A9A9"/>
<path d="M37.3541 79.7048L59.3541 57.7048C62.0208 53.8714 66.1541 44.5048 61.3541 37.7048C56.5541 30.9048 50.8678 28 44.8541 28.7048C38.8405 29.4095 31.5541 34.3048 30.3541 44.7048C29.1541 55.1048 38.5208 63.7048 43.3541 66.7048C43.8541 67.2047 40.1056 72.0096 39.5 73C38.8944 73.9904 35.4263 77.7319 34.5 79.7048C33.5737 81.6776 42.1541 85.1046 45.3541 84.7046C49.3541 84.2046 55.8541 77.2046 56.3541 77.2046C56.7541 77.2046 64.5 86.1667 69.5 91.5C70.4375 92.5 71.5541 96.5046 70.3541 97.7046C69.1541 98.9046 66.5207 98.2046 65.3541 97.7046C63.6874 96.2046 59.7541 93.0046 57.3541 92.2046C54.9541 91.4046 57.3541 93.8713 58.8541 95.2046C60.5208 96.5379 63.8218 99.895 64.8541 102.205C66.5599 106.021 63.9784 107.775 61.8541 107.205C60.8294 107.189 59.3262 106.458 57.8541 105.705C55.5 104.5 54.5 102.5 53.434 102.409C52.368 102.318 51.368 102.909 51.934 104.205C52.5 105.5 54.5 109.5 54.5 109.5C54.5 109.5 55.5048 112.341 54.3541 113.705C52.0736 116.406 49.1459 114.5 49 113.705C48.8541 112.909 49.6191 107.377 49 106.5C48.5388 105.846 48.1459 104.295 47 104C46.6459 103.795 44.5541 103.205 43.3541 103.205C42.1541 103.205 41.5208 102.205 41.3541 101.705C40.9541 98.1046 36.3541 95.2046 35.3541 94.7046C34.3541 94.2046 36.3541 89.7046 32.8541 86.2048C29.3541 82.7049 24.854 84.8715 21.854 86.2048C16.1873 82.0381 4.79998 70.0031 1.85397 55.7048C-1.44112 39.7122 5.52872 23.2717 10.354 18.7048C14.0207 13.3714 24.9541 2.40477 39.3541 1.20477C53.7541 0.00476623 65.6874 4.37143 69.8541 6.70477C75.0207 9.53804 86.2541 18.4046 89.8541 31.2046C93.4541 44.0046 91.3672 59.1667 89.8672 65C89.8672 65 88.6974 70.5312 84.3672 76.5C81.0378 81.0892 75.5 86.5 73.5 85.5C71.5 84.5 62.7553 78.6987 57.3541 72.2046C54.3116 75.5872 52.4838 77.2844 48.8541 79.7048C45.8541 81.0382 39.3542 82.9049 37.3541 79.7048Z" stroke="#6C6C6C"/>
<path d="M21.3541 97.2046C20.4743 96.337 20.3541 95.7046 20.8672 94C21.3803 92.2954 23.3586 89.5235 26.3672 88C29.0849 86.6238 30.8541 88.7046 31.3541 89.7046C31.6874 90.3713 31.7541 91.8 31.3541 93C30.9541 94.2 29.2005 95.6667 28.3672 96.5C27.2005 97.1667 25.8541 98.2046 24.3541 98.2046C22.8541 98.2046 22.2339 98.0722 21.3541 97.2046Z" stroke="#6C6C6C"/>
<path d="M21.3541 97.2046C20.4743 96.337 20.3541 95.7046 20.8672 94C21.3803 92.2954 23.3586 89.5235 26.3672 88C29.0849 86.6238 30.8541 88.7046 31.3541 89.7046C31.6874 90.3713 31.7541 91.8 31.3541 93C30.9541 94.2 29.2005 95.6667 28.3672 96.5C27.2005 97.1667 25.8541 98.2046 24.3541 98.2046C22.8541 98.2046 22.2339 98.0722 21.3541 97.2046Z" stroke="#6C6C6C"/>
<path d="M27.7252 108.409C26.8454 107.542 26.7252 106.909 27.2383 105.205C27.7514 103.5 29.7297 100.728 32.7383 99.2046C35.456 97.8284 37.2252 99.9092 37.7252 100.909C38.0585 101.576 38.1252 103.005 37.7252 104.205C37.3252 105.405 35.5716 106.871 34.7383 107.705C33.5716 108.371 32.2252 109.409 30.7252 109.409C29.2252 109.409 28.605 109.277 27.7252 108.409Z" stroke="#6C6C6C"/>
<path d="M27.7252 108.409C26.8454 107.542 26.7252 106.909 27.2383 105.205C27.7514 103.5 29.7297 100.728 32.7383 99.2046C35.456 97.8284 37.2252 99.9092 37.7252 100.909C38.0585 101.576 38.1252 103.005 37.7252 104.205C37.3252 105.405 35.5716 106.871 34.7383 107.705C33.5716 108.371 32.2252 109.409 30.7252 109.409C29.2252 109.409 28.605 109.277 27.7252 108.409Z" stroke="#6C6C6C"/>
<path d="M35.5 116.705C34.6202 115.837 34.5 115.205 35.0131 113.5C35.5262 111.795 37.5045 109.023 40.5131 107.5C43.2308 106.124 45 108.205 45.5 109.205C45.8333 109.871 45.9 111.3 45.5 112.5C45.1 113.7 43.3464 115.167 42.5131 116C41.3464 116.667 40 117.705 38.5 117.705C37 117.705 36.3798 117.572 35.5 116.705Z" stroke="#6C6C6C"/>
<path d="M35.5 116.705C34.6202 115.837 34.5 115.205 35.0131 113.5C35.5262 111.795 37.5045 109.023 40.5131 107.5C43.2308 106.124 45 108.205 45.5 109.205C45.8333 109.871 45.9 111.3 45.5 112.5C45.1 113.7 43.3464 115.167 42.5131 116C41.3464 116.667 40 117.705 38.5 117.705C37 117.705 36.3798 117.572 35.5 116.705Z" stroke="#6C6C6C"/>
</svg>
