<svg width="36" height="45" viewBox="0 0 36 45" fill="none" xmlns="http://www.w3.org/2000/svg">
<path d="M23.5385 10.125C22.804 10.125 22.0997 10.4147 21.5803 10.9305C21.061 11.4462 20.7692 12.1457 20.7692 12.875C20.7692 13.6043 21.061 14.3038 21.5803 14.8195C22.0997 15.3353 22.804 15.625 23.5385 15.625C24.2729 15.625 24.9773 15.3353 25.4966 14.8195C26.0159 14.3038 26.3077 13.6043 26.3077 12.875C26.3077 12.1457 26.0159 11.4462 25.4966 10.9305C24.9773 10.4147 24.2729 10.125 23.5385 10.125ZM9.69231 12.875C9.69231 12.1457 9.98407 11.4462 10.5034 10.9305C11.0227 10.4147 11.7271 10.125 12.4615 10.125C13.196 10.125 13.9003 10.4147 14.4197 10.9305C14.939 11.4462 15.2308 12.1457 15.2308 12.875C15.2308 13.6043 14.939 14.3038 14.4197 14.8195C13.9003 15.3353 13.196 15.625 12.4615 15.625C11.7271 15.625 11.0227 15.3353 10.5034 14.8195C9.98407 14.3038 9.69231 13.6043 9.69231 12.875ZM19.3846 1.875C19.3846 1.51033 19.2387 1.16059 18.9791 0.902728C18.7194 0.644866 18.3672 0.5 18 0.5C17.6328 0.5 17.2806 0.644866 17.0209 0.902728C16.7613 1.16059 16.6154 1.51033 16.6154 1.875V3.25H8.30769C7.20602 3.25 6.14948 3.6846 5.37048 4.45818C4.59148 5.23177 4.15385 6.28098 4.15385 7.375V18.375C4.15385 19.469 4.59148 20.5182 5.37048 21.2918C6.14948 22.0654 7.20602 22.5 8.30769 22.5H27.6923C28.794 22.5 29.8505 22.0654 30.6295 21.2918C31.4085 20.5182 31.8462 19.469 31.8462 18.375V7.375C31.8462 6.28098 31.4085 5.23177 30.6295 4.45818C29.8505 3.6846 28.794 3.25 27.6923 3.25H19.3846V1.875ZM8.30769 6H27.6923C28.0595 6 28.4117 6.14487 28.6714 6.40273C28.931 6.66059 29.0769 7.01033 29.0769 7.375V18.375C29.0769 18.7397 28.931 19.0894 28.6714 19.3473C28.4117 19.6051 28.0595 19.75 27.6923 19.75H8.30769C7.94047 19.75 7.58829 19.6051 7.32862 19.3473C7.06896 19.0894 6.92308 18.7397 6.92308 18.375V7.375C6.92308 7.01033 7.06896 6.66059 7.32862 6.40273C7.58829 6.14487 7.94047 6 8.30769 6ZM18.6923 44.4945C25.9366 44.4037 30.3092 42.8583 32.8763 40.5345C35.2994 38.3345 35.892 35.6478 35.9862 33.5055H36V31.608C35.9993 30.2884 35.4709 29.023 34.531 28.0902C33.591 27.1573 32.3166 26.6333 30.9877 26.6333H22.1538V26.625H13.8462V26.6333H5.01231C2.24308 26.6333 0 28.8607 0 31.6107V33.5055H0.0138465C0.108 35.6505 0.700615 38.3372 3.12369 40.5317C5.69077 42.8582 10.0634 44.4037 17.3077 44.4945V44.5H18.6923V44.4945ZM5.01231 29.3833H30.9877C31.5826 29.3833 32.1531 29.6179 32.5738 30.0357C32.9944 30.4534 33.2308 31.02 33.2308 31.6107V32.8125C33.2308 34.71 32.868 36.8165 31.0098 38.5023C29.1046 40.2265 25.3662 41.75 18 41.75C10.6338 41.75 6.89538 40.2265 4.99015 38.5023C3.13477 36.8165 2.76923 34.7072 2.76923 32.8125V31.608C2.76996 31.0177 3.00661 30.4518 3.42719 30.0347C3.84777 29.6176 4.41789 29.3833 5.01231 29.3833Z" fill="white"/>
</svg>
