<svg width="25" height="26" viewBox="0 0 25 26" fill="none" xmlns="http://www.w3.org/2000/svg">
<path d="M2.7646 0H15.2053C15.9385 0 16.6417 0.273928 17.1602 0.761522C17.6786 1.24912 17.9699 1.91044 17.9699 2.6V3.9C17.9699 4.24478 17.8243 4.57544 17.565 4.81924C17.3058 5.06304 16.9542 5.2 16.5876 5.2C16.221 5.2 15.8694 5.06304 15.6102 4.81924C15.3509 4.57544 15.2053 4.24478 15.2053 3.9V2.6H2.7646V23.4H15.2053V22.1C15.2053 21.7552 15.3509 21.4246 15.6102 21.1808C15.8694 20.937 16.221 20.8 16.5876 20.8C16.9542 20.8 17.3058 20.937 17.565 21.1808C17.8243 21.4246 17.9699 21.7552 17.9699 22.1V23.4C17.9699 24.0896 17.6786 24.7509 17.1602 25.2385C16.6417 25.7261 15.9385 26 15.2053 26H2.7646C2.03138 26 1.3282 25.7261 0.809733 25.2385C0.29127 24.7509 0 24.0896 0 23.4V2.6C0 1.91044 0.29127 1.24912 0.809733 0.761522C1.3282 0.273928 2.03138 0 2.7646 0Z" fill="white"/>
<path d="M17.6863 18.5842C18.2254 19.0912 19.0962 19.0912 19.6353 18.5842L24.595 13.9198C24.8542 13.6761 24.9998 13.3455 24.9998 13.0007C24.9998 12.656 24.8542 12.3254 24.595 12.0816L19.6353 7.41725C19.3726 7.1939 19.0286 7.07404 18.6745 7.08245C18.3205 7.09085 17.9834 7.22688 17.7329 7.46241C17.4825 7.69794 17.3378 8.01497 17.3289 8.34796C17.32 8.68095 17.4474 9.00443 17.6849 9.25155L20.2781 11.7007H8.29356C7.92695 11.7007 7.57535 11.8377 7.31612 12.0815C7.05689 12.3253 6.91125 12.656 6.91125 13.0007C6.91125 13.3455 7.05689 13.6762 7.31612 13.92C7.57535 14.1638 7.92695 14.3007 8.29356 14.3007H20.2781L17.6849 16.7499C17.4269 16.9936 17.2821 17.3235 17.2824 17.6674C17.2826 18.0112 17.4279 18.341 17.6863 18.5842Z" fill="white"/>
</svg>
