<svg width="25" height="46" viewBox="0 0 25 46" fill="none" xmlns="http://www.w3.org/2000/svg">
<path d="M11.3939 5.68865C10.3883 5.90911 9.65715 6.42633 9.56476 7.03965C7.16544 6.81354 5.26763 6.3161 4.41507 5.69431C4.09833 5.46254 3.92676 5.21382 3.92676 4.9538C3.92676 3.92783 6.61643 3.06297 10.2695 2.80859C10.2088 2.94991 10.1877 3.10253 10.2194 3.25798L10.5915 5.16578C10.6496 5.44559 10.9822 5.65756 11.3939 5.68865Z" stroke="#231F20" stroke-width="2.5" stroke-miterlimit="10" stroke-linecap="round" stroke-linejoin="round"/>
<path d="M21.0697 4.9539C21.0697 5.21393 20.8982 5.46265 20.5814 5.69441C19.7289 6.31903 17.831 6.81365 15.4317 7.03975C15.3393 6.42643 14.6082 5.90921 13.6025 5.68876C14.0143 5.65767 14.3469 5.44569 14.4023 5.16871L14.7745 3.26091C14.8062 3.10546 14.785 2.95284 14.7243 2.81152C18.3801 3.06307 21.0697 3.92793 21.0697 4.9539Z" stroke="#231F20" stroke-width="2.5" stroke-miterlimit="10" stroke-linecap="round" stroke-linejoin="round"/>
<path d="M23 9.6377V38.0935C23 38.8142 22.2847 39.484 21.0705 40.0295C19.1674 40.8859 16.0396 41.4427 12.5 41.4427C8.96305 41.4427 5.83258 40.8859 3.92949 40.0295C2.71267 39.484 2 38.8142 2 38.0935V9.6377C2 10.8643 6.70098 11.8592 12.5 11.8592C18.299 11.8592 23 10.8615 23 9.6377Z" stroke="#231F20" stroke-width="2.5" stroke-miterlimit="10" stroke-linecap="round" stroke-linejoin="round"/>
<path d="M21.0697 40.0254C21.0697 43.7675 12.4992 43.9992 12.4992 43.9992C12.4992 43.9992 3.92871 43.7647 3.92871 40.0254C5.8318 40.8818 8.95963 41.4386 12.4992 41.4386C16.0388 41.4386 19.1666 40.8818 21.0697 40.0254Z" stroke="#231F20" stroke-width="2.5" stroke-miterlimit="10" stroke-linecap="round" stroke-linejoin="round"/>
<path d="M23 9.63613C23 10.8628 18.299 11.8576 12.5 11.8576C6.70098 11.8576 2 10.8628 2 9.63613L2.35106 9.0652L4.42044 5.69336C5.273 6.31798 7.17081 6.8126 9.57013 7.03871C10.486 7.12632 11.4732 7.17154 12.5053 7.17154C13.5373 7.17154 14.5245 7.1235 15.4404 7.03871C17.8397 6.8126 19.7376 6.31516 20.5901 5.69336L22.6595 9.0652L23 9.63613Z" stroke="#231F20" stroke-width="2.5" stroke-miterlimit="10" stroke-linecap="round" stroke-linejoin="round"/>
<path d="M15.4318 7.03915C14.5159 7.12676 13.5287 7.17198 12.4967 7.17198C11.4673 7.17198 10.4774 7.12394 9.56152 7.03915C9.65391 6.42583 10.3851 5.9086 11.3907 5.68815C11.7312 5.61183 12.106 5.57227 12.4967 5.57227C12.8873 5.57227 13.2595 5.61466 13.6026 5.68815C14.6109 5.9086 15.3394 6.42583 15.4318 7.03915Z" stroke="#231F20" stroke-width="2.5" stroke-miterlimit="10" stroke-linecap="round" stroke-linejoin="round"/>
<path d="M14.7775 3.26056L14.4053 5.16835C14.3499 5.44533 14.0173 5.65731 13.6055 5.6884C13.265 5.61209 12.8902 5.57252 12.4996 5.57252C12.1089 5.57252 11.7367 5.61491 11.3936 5.6884C10.9818 5.65731 10.6466 5.44533 10.5938 5.16835L10.2217 3.26056C10.19 3.10511 10.2111 2.95248 10.2718 2.81116C10.4724 2.34764 11.1191 2 11.9004 2H13.0961C13.8774 2 14.5241 2.34764 14.7247 2.81116C14.788 2.94966 14.8065 3.10228 14.7775 3.26056Z" stroke="#231F20" stroke-width="2.5" stroke-miterlimit="10" stroke-linecap="round" stroke-linejoin="round"/>
</svg>
