<svg width="46" height="42" viewBox="0 0 46 42" fill="none" xmlns="http://www.w3.org/2000/svg">
<path d="M44.8919 1.23984C44.8084 1.07718 44.6724 0.975037 44.5024 1.0053C44.4808 1.00908 44.4591 1.01287 44.4375 1.02043C44.4282 1.02421 44.422 1.02421 44.4128 1.02421C39.5658 3.29395 34.7187 5.56368 29.8717 7.82963C22.1406 11.4499 14.4095 15.0663 6.67842 18.6865C4.89788 19.5188 3.11426 20.3548 1.33372 21.187C1.00297 21.3421 0.83604 21.9852 1.22553 22.2122C4.20236 23.9674 7.17919 25.7265 10.1591 27.4855C11.8191 31.851 13.476 36.2164 15.136 40.5781C15.1545 40.7067 15.204 40.8051 15.2812 40.8694C15.3585 40.9639 15.4513 40.998 15.5502 40.9942C15.6707 41.0169 15.7975 40.9753 15.9088 40.8278C17.6244 38.524 19.34 36.2202 21.0556 33.9164C22.8609 34.9832 24.6661 36.0462 26.4714 37.113C27.6553 37.8128 28.8393 38.5088 30.0232 39.2087C30.0603 39.2314 30.0943 39.2314 30.1283 39.2427C30.3169 39.3411 30.5394 39.3033 30.6538 39.0082C32.2551 34.8432 33.8563 30.6745 35.4575 26.5095C38.0263 19.8252 40.5951 13.137 43.1639 6.45266C43.7543 4.92059 44.3417 3.38474 44.9321 1.85267C45.0434 1.65596 45.0094 1.41385 44.8919 1.23984ZM5.24101 23.347C4.36311 22.8288 3.48829 22.3105 2.61039 21.796C7.11428 19.689 11.6182 17.5781 16.119 15.4711C23.8501 11.8508 31.5812 8.2344 39.3123 4.61418C39.5534 4.50069 39.7914 4.39099 40.0325 4.2775C37.6307 6.07437 35.2288 7.86746 32.8269 9.66055C26.7002 14.2378 20.5734 18.8151 14.4466 23.3962C13.105 24.3987 11.7635 25.4011 10.4219 26.4036C8.69388 25.3822 6.96899 24.3646 5.24101 23.347ZM22.1901 18.9248C28.017 14.5707 33.8439 10.2166 39.6709 5.86253C36.762 8.86614 33.8532 11.8735 30.9444 14.8771C27.7883 18.138 24.6321 21.3988 21.476 24.6559C20.3354 25.8362 19.1916 27.0126 18.051 28.1929C17.4636 28.7982 16.7928 29.3694 16.2581 30.0465C16.0757 30.2735 16.0231 30.4664 15.9829 30.7918C15.8562 31.8094 15.7975 32.8496 15.7078 33.871C15.5749 35.3766 15.4389 36.8784 15.3029 38.384C13.8902 34.6692 12.4775 30.9506 11.0648 27.2358C14.7774 24.4668 18.4837 21.6939 22.1901 18.9248ZM16.187 38.7888C16.3013 37.5102 16.4157 36.2316 16.5301 34.9529C16.6321 33.8143 16.7341 32.6794 16.8361 31.5408C16.8392 31.5105 16.8454 31.4765 16.8485 31.4424C17.9613 32.1006 19.0772 32.7589 20.1901 33.4171C19.7419 34.0186 19.2936 34.62 18.8485 35.2177C17.9613 36.4056 17.0741 37.5972 16.187 38.7888ZM20.7898 32.5243C19.646 31.851 18.5023 31.1738 17.3585 30.5005C17.7202 30.1071 18.1375 29.5737 18.2395 29.464C19.2782 28.3896 20.3168 27.3153 21.3555 26.2447C27.5379 19.8554 33.7234 13.4699 39.9058 7.08062C41.0124 5.93819 42.1191 4.79575 43.2257 3.64954C41.9274 7.02766 40.6291 10.4058 39.3308 13.7877C36.762 20.472 34.1932 27.1602 31.6244 33.8445C31.0928 35.2253 30.5642 36.6023 30.0356 37.983C26.9567 36.1635 23.8748 34.3439 20.7898 32.5243Z" fill="black" stroke="black"/>
</svg>
