<svg width="22" height="22" viewBox="0 0 22 22" fill="none" xmlns="http://www.w3.org/2000/svg">
<path fill-rule="evenodd" clip-rule="evenodd" d="M19.591 1.53585C17.6384 -0.416925 14.4725 -0.417006 12.5198 1.53566L0.554859 13.5004C0.378837 13.6751 0.239173 13.8829 0.143937 14.1119C0.0487008 14.3409 -0.000220135 14.5864 7.4463e-07 14.8344V20.1112C7.4463e-07 20.6121 0.199007 21.0926 0.55324 21.4468C0.907474 21.801 1.38792 22 1.88888 22H7.16593C7.41392 22.0002 7.65949 21.9513 7.88847 21.8561C8.11744 21.7608 8.32527 21.6212 8.49995 21.4452L20.4646 9.48065C22.4172 7.52809 22.4173 4.36238 20.4648 2.40973L19.591 1.53585ZM1.88888 20.1112H7.16593L17.5548 9.72286L12.2777 4.44606L1.88888 14.8344V20.1112ZM13.6117 3.1121L18.8888 8.3889C20.2384 7.03935 20.2384 4.85122 18.8888 3.50166L18.4992 3.1121C17.1495 1.7625 14.9614 1.7625 13.6117 3.1121Z" fill="white"/>
<path d="M18.8888 8.3889L13.6117 3.1121C14.9614 1.7625 17.1495 1.7625 18.4992 3.1121L18.8888 3.50166C20.2384 4.85122 20.2384 7.03935 18.8888 8.3889Z" fill="white"/>
</svg>
