<svg width="30" height="31" viewBox="0 0 30 31" fill="none" xmlns="http://www.w3.org/2000/svg">
<path fill-rule="evenodd" clip-rule="evenodd" d="M24.9428 2.09933C22.9902 0.146558 19.8243 0.146471 17.8716 2.09914L0.739812 19.2307C0.505115 19.4636 0.318897 19.7407 0.191916 20.046C0.0649343 20.3513 -0.000293513 20.6787 9.9284e-07 21.0093V28.0451C9.9284e-07 28.713 0.265343 29.3536 0.737654 29.8259C1.20996 30.2981 1.85056 30.5635 2.51851 30.5635H9.55458C9.88523 30.5638 10.2127 30.4985 10.518 30.3716C10.8233 30.2446 11.1004 30.0584 11.3333 29.8237L28.4646 12.6926C30.4172 10.74 30.4173 7.57429 28.4648 5.62163L24.9428 2.09933ZM2.51851 28.0451H9.55458L23.4064 14.194L16.3703 7.15822L2.51851 21.0093V28.0451ZM18.149 5.37961L25.185 12.4153V12.4153C26.9845 10.6159 26.9845 7.69843 25.185 5.89903L24.6656 5.3796C22.8661 3.58015 19.9485 3.58015 18.149 5.37961V5.37961Z" fill="#48D9A4"/>
<path d="M25.185 12.4153L18.149 5.37961V5.37961C19.9485 3.58015 22.8661 3.58015 24.6656 5.3796L25.185 5.89903C26.9845 7.69843 26.9845 10.6159 25.185 12.4153V12.4153Z" fill="#48D9A4"/>
</svg>
