<svg width="14" height="44" viewBox="0 0 14 44" fill="none" xmlns="http://www.w3.org/2000/svg">
<path fill-rule="evenodd" clip-rule="evenodd" d="M10.8462 1.88383C10.8462 2.05316 10.8041 2.21266 10.7298 2.35244C10.5618 2.66856 10.2291 2.88383 9.84618 2.88383H9.55789H4.43807H4.14889C3.76607 2.88383 3.43348 2.66871 3.26543 2.35276C3.19104 2.2129 3.14889 2.05329 3.14889 1.88383V1C3.14889 0.447715 3.59661 0 4.14889 0H9.84618C10.3985 0 10.8462 0.447715 10.8462 1V1.88383ZM9.90729 4.75725C10.0863 4.93467 10.2753 5.12575 10.47 5.3284C12.0494 6.97261 14 9.37892 14 11.4392V14.5094V14.6882C14 14.9643 13.7761 15.1882 13.5 15.1882V16.9668C13.78 17.0714 13.9827 17.3345 13.9989 17.6469C13.9996 17.6603 14 17.6738 14 17.6875C14 17.7176 13.9983 17.7473 13.9949 17.7765C13.9613 18.0675 13.7654 18.309 13.5 18.4081V20.2352C13.7654 20.3343 13.9613 20.5758 13.9949 20.8668C13.9983 20.896 14 20.9257 14 20.9558C14 20.9859 13.9983 21.0157 13.9949 21.0449C13.9613 21.3358 13.7654 21.5774 13.5 21.6765V23.5035C13.7654 23.6026 13.9613 23.8441 13.9949 24.1351C13.9983 24.1643 14 24.194 14 24.2242C14 24.2378 13.9996 24.2513 13.9989 24.2648C13.9827 24.5772 13.78 24.8402 13.5 24.9448V26.7235C13.7761 26.7235 14 26.9473 14 27.2235V27.4022V42.7078C14 42.9308 13.8527 43.1274 13.6373 43.1848C9.56413 44.2717 4.43139 44.2717 0.362522 43.1849C0.147178 43.1274 0 42.9309 0 42.708V27.4022V27.2235C0 26.9473 0.223857 26.7235 0.5 26.7235V24.9448C0.220012 24.8402 0.017312 24.5772 0.00105437 24.2648C0.00035436 24.2513 0 24.2378 0 24.2242C0 24.194 0.00173183 24.1643 0.00510134 24.1351C0.0386552 23.8441 0.234608 23.6026 0.5 23.5035V21.6765C0.234608 21.5774 0.0386554 21.3358 0.00510138 21.0449C0.00173184 21.0157 0 20.9859 0 20.9558C0 20.9257 0.00173183 20.896 0.00510135 20.8668C0.0386553 20.5758 0.234608 20.3343 0.5 20.2352V18.4081C0.234607 18.309 0.0386546 18.0675 0.00510119 17.7765C0.00173178 17.7473 0 17.7176 0 17.6875C0 17.6739 0.000354395 17.6603 0.00105447 17.6469C0.0173129 17.3344 0.220013 17.0714 0.5 16.9668V15.1882C0.223858 15.1882 0 14.9643 0 14.6882V14.5094V11.4392C0 9.37913 1.95393 6.9731 3.52785 5.3289C3.72163 5.12646 3.90965 4.93558 4.08755 4.75831C4.10668 4.73924 4.12721 4.72192 4.14889 4.70643C4.23268 4.64659 4.33369 4.61412 4.43807 4.61412H9.55789C9.6619 4.61412 9.76258 4.64635 9.84618 4.70582C9.86777 4.72117 9.88822 4.73835 9.90729 4.75725ZM1.5 15.1882V16.9185H2.32022H11.6798H12.5V15.1882H1.5ZM12.5 18.4565H11.6798H2.32022H1.5V20.1868H2.32022H11.6798H12.5V18.4565ZM12.5 21.7248H11.6798H2.32022H1.5V23.4551H2.32022H11.6798H12.5V21.7248ZM12.5 24.9932H11.6798H2.32022H1.5V26.7235H12.5V24.9932ZM11.5 11.4392V12.6882H2.5V11.4392C2.5 11.0739 2.74186 10.3384 3.48832 9.26394C4.01483 8.50611 4.66089 7.76447 5.27994 7.11412H8.71858C9.3388 7.7634 9.98579 8.50528 10.5124 9.26323C11.2581 10.3365 11.5 11.0728 11.5 11.4392ZM2.5 41.1041V29.2235H11.5V41.1038C8.63698 41.632 5.36033 41.632 2.5 41.1041Z" fill="black"/>
</svg>
