<svg width="32" height="32" viewBox="0 0 32 32" fill="none" xmlns="http://www.w3.org/2000/svg">
<path d="M6.57451 25.4281C8.43921 27.2928 10.815 28.5627 13.4014 29.0772C15.9878 29.5916 18.6687 29.3276 21.105 28.3184C23.5414 27.3092 25.6238 25.6003 27.0889 23.4076C28.554 21.215 29.3359 18.6371 29.3359 16C29.3359 13.3629 28.554 10.7851 27.0889 8.59242C25.6238 6.39976 23.5414 4.6908 21.1051 3.68163C18.6687 2.67246 15.9878 2.40841 13.4014 2.92288C10.815 3.43735 8.43922 4.70723 6.57452 6.57193" stroke="white" stroke-width="2"/>
<path d="M20 16L20.7809 15.3753L21.2806 16L20.7809 16.6247L20 16ZM4 17C3.44772 17 3 16.5523 3 16C3 15.4477 3.44772 15 4 15V17ZM15.4475 8.70862L20.7809 15.3753L19.2191 16.6247L13.8858 9.95801L15.4475 8.70862ZM20.7809 16.6247L15.4475 23.2913L13.8858 22.042L19.2191 15.3753L20.7809 16.6247ZM20 17H4V15H20V17Z" fill="white"/>
</svg>
