<svg width="46" height="42" viewBox="0 0 46 42" fill="none" xmlns="http://www.w3.org/2000/svg">
<path d="M34.3299 2.77707L29.9381 1.7104C29.3476 1.56818 28.7571 1.49707 28.1297 1.49707L17.8699 1.49707C17.2794 1.49707 16.652 1.56818 16.0615 1.7104L11.6697 2.77707C9.89819 3.20374 8.34814 4.2704 7.31477 5.72818L1.8896 13.6215C1.33601 14.4393 1.55744 15.5415 2.40628 16.0748L5.50638 18.066C6.2814 18.5637 7.35168 18.4215 7.97908 17.7104L10.0458 15.2571V38.6882C10.0458 39.6837 10.8577 40.466 11.8911 40.466H34.1823C35.2157 40.466 36.0276 39.6837 36.0276 38.6882V15.2571L38.0943 17.7104C38.6848 18.4215 39.7551 18.5993 40.567 18.066L43.6671 16.0748C44.516 15.5415 44.7374 14.4393 44.1838 13.6215L38.7217 5.76374C37.6515 4.2704 36.1014 3.20374 34.3299 2.77707Z" stroke="black"/>
<path d="M29.0157 2.10121C28.7205 5.05232 26.137 7.32787 23 7.32787C19.8261 7.32787 17.2058 4.98121 16.9844 1.95898" stroke="black"/>
<path d="M39.1279 5.44444C38.0207 3.84444 36.36 2.74222 34.4408 2.28L30.049 1.21333C29.4216 1.07111 28.7573 1 28.1299 1H17.8701C17.2058 1 16.5784 1.07111 15.951 1.21333L11.5592 2.28C9.64005 2.74222 7.97928 3.88 6.8721 5.44444L1.41002 13.3022C1.04096 13.8 0.930242 14.44 1.04096 15.0444C1.15168 15.6489 1.52074 16.1822 2.07433 16.5022L5.17443 18.4933C5.58039 18.7422 6.02326 18.8844 6.50304 18.8844C7.24116 18.8844 7.90547 18.5644 8.38524 18.0311L9.45552 16.7511V38.6889C9.45552 39.9689 10.5258 41 11.8544 41H34.1456C35.4742 41 36.5445 39.9689 36.5445 38.6889V16.7511L37.6148 18.0311C38.0576 18.5644 38.7588 18.8844 39.497 18.8844C39.9767 18.8844 40.4196 18.7422 40.8256 18.4933L43.9257 16.5022C44.4424 16.1467 44.8114 15.6489 44.959 15.0444C45.0698 14.44 44.959 13.8356 44.59 13.3022L39.1279 5.44444ZM28.1299 2.03111C28.2406 2.03111 28.3514 2.03111 28.4621 2.03111C28.1668 4.76889 25.8418 6.79556 23 6.79556C20.1951 6.79556 17.8332 4.73333 17.5379 2.06667C17.6486 2.06667 17.7594 2.06667 17.8701 2.06667H28.1299V2.03111ZM43.2983 15.6133L40.1982 17.6044C39.6446 17.96 38.8696 17.8533 38.4636 17.3556L36.3969 14.9022C36.2492 14.7244 35.9909 14.6533 35.7695 14.7244C35.548 14.7956 35.4004 15.0089 35.4004 15.2222V38.6533C35.4004 39.3289 34.8099 39.8978 34.1087 39.8978H11.8544C11.1532 39.8978 10.5627 39.3289 10.5627 38.6533V15.2578C10.5627 15.0444 10.4151 14.8311 10.1936 14.76C10.1198 14.7244 10.0829 14.7244 10.0091 14.7244C9.86148 14.7244 9.67695 14.7956 9.56623 14.9378L7.4995 17.3911C7.13044 17.8533 6.35542 17.96 5.80183 17.6044L2.70173 15.6133C2.11123 15.2222 1.96361 14.4756 2.33267 13.8711L7.79475 6.01333C8.7543 4.66222 10.1567 3.66667 11.8175 3.27556L16.2093 2.20889C16.2831 2.17333 16.3569 2.17333 16.4307 2.17333C16.7998 5.37333 19.6047 7.86222 22.9631 7.86222C26.3584 7.86222 29.1633 5.44444 29.5324 2.20889C29.6062 2.20889 29.68 2.24444 29.7538 2.24444L34.1456 3.31111C35.8064 3.70222 37.2088 4.66222 38.1683 6.04889L43.6673 13.9067C44.0364 14.4756 43.8888 15.2578 43.2983 15.6133Z" fill="black" stroke="black"/>
<path d="M32.263 13.4795H27.0223C26.7271 13.4795 26.4688 13.7284 26.4688 14.0128C26.4688 14.2973 26.7271 14.5462 27.0223 14.5462H32.263C32.5582 14.5462 32.8166 14.2973 32.8166 14.0128C32.8166 13.7284 32.5582 13.4795 32.263 13.4795Z" fill="#4A374F" stroke="black"/>
</svg>
