<svg width="128" height="128" viewBox="0 0 128 128" fill="none" xmlns="http://www.w3.org/2000/svg">
<path d="M61.5648 119.136C49.9428 119.171 38.7321 114.837 30.1561 106.993C21.58 99.1496 16.2652 88.3693 15.2655 76.7903C14.2659 65.2114 17.6546 53.6796 24.7594 44.4822C31.8643 35.2848 42.1663 29.0936 53.6224 27.1365C91.3487 19.856 101.277 16.4143 114.514 0C121.133 13.2373 127.751 27.666 127.751 52.9492C127.751 89.3518 96.1141 119.136 61.5648 119.136Z" fill="#48D9A4"/>
<path d="M2 125.755C2 105.899 14.2445 90.2787 35.6228 86.0427C51.6399 82.8658 68.1865 72.8054 74.8052 66.1868" stroke="#2A8C82" stroke-width="3" stroke-linecap="round" stroke-linejoin="round"/>
</svg>
