<svg width="61" height="61" viewBox="0 0 61 61" fill="none" xmlns="http://www.w3.org/2000/svg">
<path d="M29.4222 56.842C23.8772 56.8588 18.5283 54.791 14.4365 51.0486C10.3447 47.3062 7.8089 42.1627 7.33196 36.6382C6.85502 31.1136 8.47182 25.6116 11.8617 21.2234C15.2515 16.8351 20.1669 13.8811 25.6328 12.9473C43.6327 9.47367 48.3696 7.83156 54.6853 0C57.8432 6.31578 61.0011 13.2 61.0011 25.2631C61.0011 42.6315 45.9064 56.842 29.4222 56.842Z" fill="#3DD9C9"/>
<path d="M1 60C1 50.5263 6.84209 43.0737 17.0421 41.0527C24.6842 39.5369 32.5789 34.7369 35.7368 31.579" stroke="#45718C" stroke-linecap="round" stroke-linejoin="round"/>
</svg>
